<?xml version="1.0" standalone="no"?>
<!DOCTYPE svg PUBLIC "-//W3C//DTD SVG 20010904//EN"
 "http://www.w3.org/TR/2001/REC-SVG-20010904/DTD/svg10.dtd">
<svg version="1.0" xmlns="http://www.w3.org/2000/svg"
 width="1100.000000pt" height="1100.000000pt" viewBox="0 0 1100.000000 1100.000000"
 preserveAspectRatio="xMidYMid meet">
<metadata>
Created by potrace 1.11, written by Peter Selinger 2001-2013
</metadata>
<g transform="translate(0.000000,1100.000000) scale(0.100000,-0.100000)"
fill="#000000" stroke="none">
<path d="M5209 10976 c-2 -2 -60 -6 -129 -9 -110 -6 -192 -13 -360 -32 -25 -3
-101 -15 -170 -26 -69 -11 -139 -23 -157 -26 -17 -2 -107 -22 -200 -44 -92
-22 -179 -42 -191 -44 -102 -23 -423 -131 -603 -203 -1511 -604 -2682 -1872
-3159 -3422 -121 -391 -199 -803 -227 -1200 -15 -206 -6 -910 12 -940 1 -3 6
-43 10 -90 4 -47 8 -87 10 -90 2 -3 6 -30 10 -60 3 -30 8 -62 10 -70 2 -8 7
-35 10 -60 12 -84 66 -334 101 -469 238 -904 708 -1729 1377 -2415 48 -49 87
-93 87 -98 0 -4 5 -8 10 -8 6 0 42 -31 80 -68 39 -38 70 -67 70 -64 0 2 21
-16 46 -42 26 -25 51 -46 56 -46 5 0 6 -5 3 -10 -4 -6 -3 -9 2 -8 12 4 54 -28
46 -35 -3 -4 1 -7 10 -7 9 0 21 -8 26 -17 6 -10 11 -15 11 -11 0 5 11 -2 25
-14 13 -11 21 -26 18 -32 -3 -6 -3 -8 2 -4 10 9 47 -10 40 -21 -2 -5 3 -8 13
-7 9 0 16 -5 14 -12 -1 -8 2 -11 6 -8 5 3 21 -5 35 -18 15 -14 40 -32 56 -42
17 -10 27 -22 24 -28 -3 -6 -3 -8 2 -4 11 11 47 -11 39 -24 -4 -6 -3 -8 2 -5
13 7 100 -52 96 -65 -1 -5 3 -8 10 -5 12 4 75 -35 90 -57 5 -7 8 -7 8 -1 0 6
7 1 15 -9 8 -11 15 -17 15 -13 0 7 47 -19 60 -33 5 -5 13 -10 89 -52 20 -11
39 -25 42 -30 3 -5 8 -9 10 -8 2 1 16 -4 31 -11 19 -8 25 -16 18 -23 -6 -8 -3
-12 10 -12 10 0 16 5 14 11 -3 5 1 2 9 -8 9 -10 18 -18 21 -18 17 2 17 0 5
-17 -13 -16 -13 -16 5 -2 23 18 19 18 40 0 10 -8 24 -15 32 -16 7 -1 21 -9 30
-18 8 -9 19 -14 23 -11 5 2 19 -6 32 -18 13 -12 25 -21 26 -19 10 8 23 -1 23
-15 0 -15 2 -15 9 -4 8 13 12 13 26 1 9 -8 22 -15 29 -16 6 -1 29 -11 49 -22
34 -18 36 -21 20 -31 -24 -14 -8 -14 19 0 27 14 36 2 12 -16 -17 -13 -15 -13
15 -2 27 9 35 9 38 0 3 -7 13 -13 24 -13 10 0 19 -4 19 -10 0 -5 -8 -7 -17 -4
-14 5 -15 4 -4 -4 18 -13 43 -4 34 12 -3 6 3 3 14 -7 11 -9 23 -14 26 -10 4 3
7 1 7 -6 0 -7 4 -10 9 -6 5 3 12 1 16 -5 4 -6 10 -8 15 -5 5 3 11 1 15 -5 4
-6 11 -7 17 -4 7 4 8 2 4 -5 -4 -6 -12 -9 -17 -6 -5 4 -9 1 -9 -5 0 -13 32 -9
42 5 5 6 8 3 8 -7 0 -9 -6 -19 -12 -22 -7 -3 -4 -4 7 -3 13 1 19 -3 17 -12 -3
-12 0 -12 11 -2 19 15 60 23 52 10 -4 -5 -10 -7 -15 -4 -5 3 -11 2 -13 -2 -3
-5 8 -9 24 -9 19 -1 26 2 22 10 -4 6 1 5 10 -3 10 -8 28 -15 40 -15 30 -2 64
-23 54 -32 -5 -5 -11 -4 -15 1 -4 6 -14 11 -22 13 -12 3 -12 1 -3 -9 7 -7 23
-13 35 -14 16 -2 22 -8 21 -21 -1 -18 -1 -18 12 -1 12 17 14 16 34 -9 21 -27
21 -27 17 -3 -2 13 -9 23 -15 21 -6 -1 -11 2 -11 7 0 6 9 9 19 8 11 0 18 -4
15 -8 -5 -9 25 -21 37 -13 5 3 16 -2 25 -10 18 -18 39 -22 28 -5 -9 16 29 -6
45 -25 10 -12 9 -16 -6 -25 -10 -6 -13 -11 -6 -11 6 0 15 5 19 11 5 8 9 8 14
-1 6 -10 12 -10 26 0 17 10 17 11 1 6 -12 -4 -16 -2 -11 6 4 6 3 8 -3 5 -6 -4
-13 0 -17 8 -4 12 3 11 34 -5 44 -22 54 -25 45 -10 -3 5 0 7 9 4 12 -5 13 -9
3 -19 -7 -7 -17 -9 -22 -5 -6 5 -19 2 -29 -6 -11 -8 -15 -14 -10 -14 6 0 15 5
22 12 9 9 12 9 12 0 0 -7 7 -12 15 -12 8 0 15 5 15 10 0 6 5 10 11 10 5 0 7
-4 4 -10 -3 -5 -1 -10 4 -10 6 0 11 7 11 15 0 8 4 15 10 15 5 0 7 -6 4 -14 -3
-8 0 -17 7 -22 7 -4 10 -3 5 4 -3 6 -1 14 5 18 8 4 9 3 5 -4 -5 -8 1 -12 14
-12 14 0 19 4 14 13 -6 8 -3 8 9 -1 9 -8 22 -10 28 -6 7 4 9 3 5 -4 -3 -6 -2
-13 3 -16 5 -4 13 -2 16 4 5 8 11 8 20 0 8 -7 19 -9 24 -6 5 4 12 2 16 -3 3
-5 14 -8 24 -6 10 2 18 -3 18 -10 0 -8 -5 -11 -11 -8 -6 4 -5 -1 3 -10 7 -9
17 -14 22 -11 5 3 9 0 9 -5 0 -6 5 -11 11 -11 5 0 7 5 4 10 -3 6 -2 10 4 10 6
0 8 8 4 18 -3 9 -4 15 -2 12 35 -41 43 -54 27 -41 -10 7 -18 9 -18 3 0 -15 26
-22 38 -10 8 8 7 14 -4 22 -13 10 -12 12 6 13 11 1 18 -2 15 -6 -9 -16 23 -33
47 -25 33 11 58 12 52 2 -3 -4 -1 -8 5 -8 5 0 13 -9 16 -21 4 -11 9 -18 13
-15 3 3 16 -1 29 -9 23 -15 23 -15 11 4 -6 11 -15 18 -18 16 -3 -2 -12 1 -20
7 -12 8 -11 9 4 4 14 -5 17 -2 12 11 -6 17 -5 17 8 0 10 -13 16 -15 21 -6 6 8
10 7 17 -5 6 -10 7 -20 4 -23 -3 -4 -6 -1 -6 5 0 7 -5 12 -12 12 -6 0 -5 -7 5
-18 13 -14 14 -21 5 -30 -9 -9 -5 -9 15 0 22 11 23 14 9 20 -14 5 -12 7 6 7
13 1 20 5 17 11 -4 6 -11 7 -17 4 -7 -4 -8 -2 -4 4 4 7 2 12 -5 12 -7 0 -9 3
-6 7 4 3 15 -1 25 -10 10 -10 22 -14 25 -11 4 4 14 1 23 -6 13 -12 17 -11 26
1 8 11 9 10 4 -4 -3 -10 -6 -21 -6 -24 0 -3 -8 1 -17 8 -10 7 -15 9 -11 5 4
-5 2 -16 -5 -25 -10 -14 -10 -14 4 -4 12 10 18 10 29 0 10 -9 11 -9 5 1 -9 17
24 12 43 -5 7 -7 17 -13 22 -13 11 0 24 21 25 39 0 8 10 15 22 16 12 1 21 -3
20 -8 -1 -5 4 -12 11 -14 6 -3 12 0 12 6 0 6 5 11 10 11 6 0 5 -8 -2 -19 -10
-16 -15 -18 -27 -8 -12 10 -13 9 -6 -2 5 -10 4 -12 -3 -7 -8 5 -10 1 -5 -9 3
-9 9 -13 12 -8 11 15 36 8 35 -10 -1 -9 3 -14 8 -11 5 3 7 12 4 19 -3 8 -2 16
2 18 4 2 0 2 -8 0 -9 -3 -7 4 7 16 25 23 38 28 26 9 -4 -7 -9 -22 -10 -33 -3
-15 -1 -17 9 -7 16 16 33 15 19 -1 -8 -10 -7 -14 3 -14 17 0 14 25 -5 39 -12
8 -12 9 1 5 8 -2 22 -1 31 4 8 4 22 4 30 -1 12 -8 11 -12 -3 -27 -11 -11 -18
-13 -18 -5 0 7 5 12 11 12 5 0 8 4 4 10 -3 5 -12 7 -21 3 -13 -5 -13 -8 -1
-27 15 -22 42 -29 42 -11 0 6 4 16 8 23 5 6 5 16 2 22 -3 6 1 7 10 4 12 -5 13
-9 4 -21 -17 -20 13 -52 34 -35 14 12 27 7 27 -10 0 -5 -4 -7 -9 -3 -5 3 -12
1 -15 -4 -4 -5 2 -8 11 -7 9 2 19 8 21 14 2 7 8 12 13 12 6 0 7 -4 4 -10 -10
-16 1 -11 16 7 10 11 10 14 2 9 -7 -4 -13 -2 -13 4 0 6 11 8 27 5 17 -3 34 2
45 12 10 9 18 13 18 8 0 -4 7 -2 15 5 10 9 15 9 15 1 0 -6 -4 -12 -10 -12 -5
-1 -14 -3 -20 -4 -5 -1 -13 -3 -17 -4 -5 -1 -1 -6 7 -11 10 -6 22 -4 36 5 20
13 23 12 28 -2 4 -9 4 -18 1 -21 -3 -3 -5 0 -5 6 0 7 -5 12 -11 12 -5 0 -7 -4
-4 -10 3 -5 0 -8 -7 -7 -7 2 -10 2 -5 0 4 -3 5 -8 2 -13 -6 -9 15 -8 31 3 17
10 25 -4 12 -22 -7 -9 0 -5 15 8 19 17 27 20 27 10 0 -9 3 -10 8 -4 6 10 20
11 40 5 4 -1 10 -2 15 -1 4 0 7 -6 7 -16 0 -9 3 -14 6 -10 4 3 2 20 -4 36 -7
19 -7 31 -1 31 5 0 9 -7 9 -15 0 -8 5 -15 11 -15 5 0 7 -6 3 -12 -6 -10 -5
-10 8 -1 8 7 18 10 21 6 4 -3 -1 -12 -11 -20 -15 -11 -13 -12 11 -2 15 7 27
16 27 21 0 5 4 7 10 3 5 -3 7 -12 4 -19 -3 -8 0 -17 7 -22 8 -4 10 -3 5 4 -13
22 5 34 21 15 13 -16 13 -15 0 8 -14 23 -13 27 5 50 l20 24 -16 -27 c-15 -25
-15 -28 -1 -28 10 0 13 -5 9 -12 -4 -7 -4 -10 1 -6 4 4 14 3 22 -4 11 -8 12
-7 7 5 -4 12 0 15 19 13 13 -2 29 -6 35 -10 6 -3 14 -1 18 5 5 9 11 7 21 -6 7
-11 13 -13 13 -7 0 7 6 11 13 10 6 -2 12 4 12 12 0 18 32 66 40 59 2 -3 -4
-15 -15 -26 -15 -17 -16 -22 -5 -27 8 -3 17 3 20 15 5 16 10 18 21 8 11 -9 17
-9 29 1 8 7 15 8 15 3 0 -5 16 -9 35 -9 30 1 34 4 31 23 -3 15 0 20 10 17 47
-14 46 -14 35 -28 -9 -11 -9 -15 1 -18 9 -3 9 -6 0 -12 -7 -4 -12 -2 -12 3 0
6 -7 11 -15 11 -8 0 -12 -6 -9 -13 4 -11 72 -16 117 -8 13 2 7 18 -8 18 -8 0
-12 -4 -9 -9 3 -4 1 -8 -4 -8 -14 0 -22 25 -12 39 5 9 9 8 14 -6 7 -17 8 -17
21 0 8 11 11 26 8 35 -4 14 -3 14 5 3 6 -8 8 -21 5 -29 -5 -12 -2 -12 15 -3
11 6 28 8 36 5 9 -3 16 -1 16 5 0 6 -4 11 -10 11 -5 0 -10 5 -10 11 0 8 6 7
17 -2 15 -12 16 -12 9 6 -5 15 -4 17 4 9 19 -19 -6 -57 -31 -49 -11 4 -19 2
-19 -4 0 -6 11 -11 25 -11 14 0 28 -1 32 -2 3 -2 7 6 9 17 2 11 8 21 14 23 7
3 8 8 1 16 -7 8 -4 12 12 13 17 2 19 0 7 -7 -8 -5 -11 -10 -6 -10 5 0 1 -9 -9
-20 -10 -11 -13 -20 -7 -20 6 0 10 -6 8 -12 -1 -7 -1 -10 1 -5 3 4 9 7 14 7 6
0 8 -4 5 -8 -2 -4 4 -9 15 -9 10 -1 19 3 19 8 0 6 -4 8 -9 4 -5 -3 -12 -1 -16
5 -3 5 0 10 8 10 7 0 14 7 14 15 0 8 -4 15 -9 15 -4 0 -8 -4 -8 -9 0 -5 -7
-12 -15 -15 -13 -5 -12 -1 2 19 19 26 32 32 34 15 1 -5 3 -14 4 -20 1 -5 3
-15 4 -20 1 -8 86 -8 86 0 0 1 10 3 23 6 14 2 21 0 17 -6 -3 -6 1 -7 9 -4 9 3
16 14 16 23 0 14 -2 14 -10 1 -8 -12 -10 -12 -10 -1 0 11 -3 11 -15 1 -12 -10
-15 -10 -15 1 0 11 -2 11 -10 -1 -5 -8 -10 -10 -10 -5 0 6 5 17 10 25 6 10 10
11 10 3 0 -7 5 -13 11 -13 5 0 7 6 3 13 -6 8 -3 8 9 -1 14 -12 16 -10 14 14
-1 16 3 29 10 29 6 0 15 3 19 8 4 4 12 7 18 7 5 0 1 -6 -9 -14 -11 -8 -23 -12
-27 -10 -5 3 -8 -2 -8 -11 0 -9 4 -13 10 -10 6 4 7 -1 3 -10 -5 -15 -3 -15 15
-4 12 7 17 16 12 19 -5 3 0 11 10 18 12 7 20 8 20 2 0 -5 -5 -10 -10 -10 -6 0
-9 -3 -9 -7 3 -20 -2 -34 -10 -28 -5 3 -12 1 -15 -4 -3 -5 5 -11 18 -13 17 -3
23 0 22 11 -1 18 40 17 70 -2 7 -4 18 0 25 9 12 14 14 14 25 -1 8 -10 14 -12
19 -6 3 6 1 11 -5 11 -6 0 -9 4 -5 10 3 5 12 7 20 4 8 -4 13 -9 10 -13 -2 -4
6 -7 18 -6 18 1 22 8 23 36 2 61 3 66 15 47 5 -9 16 -15 24 -12 8 4 12 11 8
17 -3 6 4 3 16 -6 13 -8 30 -13 37 -10 8 3 14 0 14 -5 0 -6 -9 -9 -20 -7 -13
3 -18 0 -14 -7 5 -7 2 -8 -6 -3 -9 6 -11 4 -5 -5 5 -8 4 -11 -3 -6 -6 4 -9 13
-5 21 4 11 1 13 -10 9 -9 -3 -14 -13 -10 -22 3 -10 -4 -7 -16 8 -11 14 -21 20
-21 14 0 -5 6 -16 13 -23 9 -11 9 -12 0 -7 -9 5 -11 2 -6 -9 3 -9 9 -13 12 -8
10 14 34 15 42 1 7 -11 9 -11 9 0 0 7 5 10 10 7 6 -4 7 -12 4 -18 -4 -8 -2 -7
7 1 12 11 12 14 0 21 -8 6 -9 11 -3 15 6 3 13 2 17 -4 4 -6 12 -7 18 -3 23 14
48 11 42 -6 -5 -13 -4 -13 6 -4 10 10 9 15 -1 28 -8 9 -8 15 -2 15 6 0 16 -8
21 -17 6 -10 11 -13 11 -7 0 6 7 11 15 12 8 1 22 3 30 4 8 1 12 5 9 10 -3 4 0
9 5 9 6 1 17 2 24 3 6 1 15 -3 19 -9 5 -6 8 -5 8 3 0 7 5 10 10 7 6 -4 7 -12
4 -18 -4 -8 -2 -7 7 1 12 11 12 14 0 21 -10 7 -10 10 -1 16 7 4 17 1 22 -6 7
-10 8 -4 4 18 -6 37 15 63 37 44 8 -6 17 -8 20 -4 4 3 13 0 21 -6 9 -8 16 -8
20 -2 6 9 -31 27 -46 23 -12 -3 -10 16 2 23 5 3 10 1 10 -5 0 -6 4 -8 10 -5 5
3 10 2 10 -2 0 -5 9 -14 19 -20 18 -11 19 -10 18 12 -1 13 3 24 8 24 6 0 13
10 17 23 7 22 7 22 5 -2 -1 -14 -8 -24 -15 -22 -6 1 -12 -4 -12 -11 0 -23 12
-28 25 -11 11 15 14 15 38 -1 15 -9 27 -13 27 -9 0 5 5 2 10 -6 7 -11 10 -11
10 -2 0 7 5 10 10 7 6 -3 13 1 16 9 3 9 10 14 14 11 5 -3 12 -1 15 5 5 8 11 8
20 0 9 -8 15 -8 20 0 3 6 10 8 14 6 4 -3 8 1 8 8 0 7 -6 13 -13 13 -7 0 -10
-5 -7 -10 4 -6 1 -7 -6 -2 -9 5 -9 11 -3 17 6 6 8 16 6 23 -3 7 0 16 6 20 8 5
7 11 -2 23 -12 15 -11 16 5 3 15 -12 17 -11 18 5 0 12 3 14 6 6 3 -7 -3 -22
-13 -33 -21 -24 -13 -36 10 -14 9 9 16 13 16 9 0 -4 6 0 13 10 11 16 15 16 28
4 18 -17 41 -17 47 1 3 8 0 11 -5 8 -5 -3 -15 -1 -23 4 -13 8 -12 12 4 24 10
8 24 12 29 8 6 -4 8 0 4 10 -3 10 -2 17 4 17 15 0 6 -35 -9 -36 -6 -1 -17 -2
-23 -3 -5 0 -8 -5 -5 -10 7 -11 25 -9 46 4 13 8 13 6 2 -8 -8 -9 -10 -22 -6
-28 4 -7 3 -9 -4 -5 -6 3 -13 2 -16 -3 -3 -5 3 -11 13 -14 12 -3 18 1 18 12 0
9 5 27 11 41 11 23 11 22 7 -13 -3 -22 -1 -37 6 -37 5 0 7 5 4 10 -6 9 10 14
45 11 9 0 10 2 3 5 -7 3 -11 11 -9 17 1 7 1 9 -1 4 -3 -4 -10 -4 -15 -1 -7 4
-8 2 -4 -4 4 -7 3 -12 -3 -12 -5 0 -9 9 -8 19 1 12 6 17 16 13 10 -4 12 -1 6
9 -8 12 -6 12 8 0 16 -12 17 -11 13 10 -3 13 -5 26 -5 29 -1 3 -6 -2 -11 -10
-6 -9 -10 -10 -10 -3 0 6 4 14 9 18 12 7 43 -24 35 -36 -3 -6 0 -16 6 -24 9
-11 9 -15 1 -15 -6 0 -11 5 -11 12 0 6 -3 9 -6 5 -3 -3 -2 -13 3 -22 8 -14 11
-14 28 5 13 14 21 17 31 9 8 -7 14 -7 19 1 4 6 2 9 -3 8 -6 -2 -11 2 -11 7 -1
6 8 11 19 11 11 1 26 7 34 13 8 7 20 10 26 6 6 -4 9 -1 8 6 -2 7 6 14 17 16
16 3 17 2 5 -6 -8 -6 -10 -11 -4 -11 6 0 13 3 17 6 9 9 -4 35 -14 28 -5 -3 -6
3 -2 12 4 11 8 13 11 6 2 -7 9 -9 14 -6 6 4 8 2 4 -4 -3 -6 -2 -13 3 -16 5 -4
13 -2 16 4 5 8 11 8 20 0 10 -8 15 -8 21 1 5 8 3 9 -6 4 -8 -5 -11 -3 -8 6 3
8 11 14 18 14 7 0 15 7 17 15 4 12 3 12 -5 2 -7 -11 -11 -10 -16 4 -3 9 -4 19
-1 22 3 3 5 0 5 -8 0 -10 3 -10 14 -1 11 9 16 9 22 0 5 -8 3 -9 -6 -4 -9 5
-11 4 -6 -3 4 -7 15 -8 30 -2 13 5 27 6 32 2 4 -4 4 -1 0 6 -4 7 -1 12 9 12
10 0 13 -5 9 -12 -4 -7 -3 -10 1 -5 5 4 10 17 12 29 3 17 1 19 -12 8 -8 -7
-15 -9 -15 -6 0 4 -7 0 -16 -8 -18 -18 -34 -21 -34 -5 0 5 4 8 9 5 17 -11 33
21 22 43 -9 17 -8 22 9 31 13 7 20 7 20 0 0 -5 -7 -10 -15 -10 -9 0 -12 -6 -9
-15 5 -12 9 -13 20 -4 19 16 82 20 90 7 4 -7 2 -8 -5 -4 -6 4 -18 2 -26 -4
-11 -9 -15 -9 -15 -1 0 6 -5 11 -11 11 -8 0 -7 -6 2 -17 12 -15 12 -16 -1 -8
-13 8 -13 7 -1 -8 10 -13 17 -15 27 -6 8 6 11 16 8 21 -4 6 2 8 15 3 13 -4 21
-2 21 5 0 6 4 9 9 5 10 -5 24 11 27 30 0 6 2 16 2 23 3 17 19 15 25 -2 4 -10
1 -13 -7 -10 -10 4 -14 -3 -12 -20 1 -24 2 -25 14 -9 7 10 20 17 28 15 11 -2
13 4 9 28 -3 18 -1 30 5 30 6 0 9 -4 6 -9 -3 -5 12 -8 34 -8 33 1 39 4 38 21
0 12 3 29 7 39 6 13 4 16 -9 11 -9 -3 -13 -11 -9 -18 4 -6 -1 -5 -10 3 -11 8
-15 21 -12 32 5 15 2 18 -12 13 -14 -5 -15 -4 -3 4 20 15 32 4 24 -21 -7 -21
-6 -21 20 -3 15 9 33 15 39 12 7 -2 4 -5 -6 -5 -10 -1 -15 -5 -12 -11 3 -5 2
-18 -4 -28 -8 -15 -5 -18 12 -19 17 -2 18 0 7 7 -8 5 -11 12 -7 16 3 4 13 1
22 -6 8 -7 15 -8 15 -2 0 5 -8 13 -17 17 -17 6 -17 7 0 16 14 8 16 14 6 25 -8
10 -8 14 0 14 6 0 11 -4 11 -10 0 -5 5 -10 10 -10 7 0 7 8 -1 23 -6 12 -8 19
-4 15 4 -4 16 3 27 15 11 12 17 17 14 10 -4 -6 -2 -14 4 -18 13 -8 7 -42 -10
-58 -12 -10 -12 -9 -2 4 10 13 9 19 -4 30 -13 11 -15 11 -14 -2 4 -26 0 -40
-9 -34 -5 3 -13 0 -17 -6 -5 -8 -1 -10 14 -7 12 3 23 1 26 -6 3 -7 5 -7 5 2 1
7 6 10 11 7 6 -4 9 -1 8 7 -2 7 2 12 7 11 13 -2 14 36 2 55 -11 17 1 15 19 -2
9 -10 10 -17 4 -21 -6 -4 -8 -11 -4 -16 3 -5 10 -7 15 -3 5 3 7 9 4 14 -3 5
-1 11 5 15 5 3 10 1 10 -6 0 -9 3 -9 14 0 8 7 12 21 9 32 -4 15 -8 17 -14 8
-5 -8 -3 -17 4 -22 8 -5 5 -7 -8 -5 -20 3 -44 25 -45 42 0 6 6 1 14 -10 8 -11
18 -15 23 -10 4 5 2 11 -4 13 -7 3 -13 9 -13 15 0 6 7 4 17 -3 15 -12 16 -12
10 6 -7 19 -7 19 8 1 8 -10 17 -24 20 -30 3 -8 7 -7 11 2 8 18 24 4 18 -16 -4
-12 -2 -11 7 3 19 30 36 45 43 38 3 -4 6 -4 6 -1 0 3 -8 12 -17 19 -14 12 -16
12 -8 0 6 -10 4 -12 -5 -6 -9 6 -11 4 -5 -5 6 -9 4 -11 -5 -5 -9 6 -11 4 -6
-4 13 -20 -27 -9 -43 12 -18 25 1 44 20 20 13 -16 12 -17 -3 -4 -12 9 -18 10
-18 2 0 -14 25 -25 39 -16 7 4 3 17 -11 35 -12 17 -19 33 -15 36 4 4 10 -2 14
-12 7 -20 33 -50 33 -39 0 3 10 1 21 -6 17 -8 20 -8 14 1 -5 8 -3 11 6 8 8 -3
13 -14 11 -24 -3 -15 0 -14 15 6 10 14 18 28 18 32 0 16 17 21 26 8 9 -12 10
-12 5 2 -6 19 20 38 42 31 15 -6 16 13 0 23 -7 5 -8 2 -3 -7 5 -8 4 -11 0 -6
-5 4 -19 0 -33 -9 -14 -9 -21 -11 -17 -4 5 8 3 11 -6 8 -8 -3 -15 -10 -15 -16
-1 -7 -3 -15 -4 -19 -1 -5 -2 -12 -1 -16 1 -5 -4 -5 -10 -2 -7 5 -7 11 -1 17
6 6 9 16 6 22 -2 6 10 19 27 28 16 10 27 22 24 28 -3 5 -1 10 4 10 14 0 14
-13 -1 -28 -7 -7 -8 -12 -2 -12 6 0 19 9 29 20 10 11 13 20 7 20 -7 0 -14 11
-18 24 -4 18 -11 23 -27 20 -21 -4 -21 -4 -2 5 23 10 35 5 35 -15 0 -8 3 -14
8 -14 4 0 13 -9 20 -21 8 -12 9 -18 3 -15 -5 4 -12 2 -16 -4 -4 -6 4 -9 19 -8
20 2 23 5 15 20 -5 10 -6 18 -2 18 4 0 -2 6 -13 14 -15 12 -17 17 -6 27 6 7
12 9 12 3 0 -5 5 -2 10 6 8 11 9 8 6 -13 -3 -19 -1 -27 7 -24 7 2 11 13 9 23
-2 15 -1 16 7 5 10 -15 46 -7 36 8 -3 6 4 18 15 29 l20 19 -27 13 c-16 7 -32
12 -38 11 -5 -2 -6 1 -2 5 12 12 38 14 30 1 -4 -7 0 -8 11 -4 9 4 15 3 13 -1
-2 -4 10 -20 26 -37 16 -16 26 -24 22 -16 -6 11 -4 13 11 7 10 -4 15 -4 11 0
-9 10 44 45 56 37 6 -3 7 -1 3 5 -3 6 -2 13 4 17 5 3 10 0 10 -7 0 -7 9 2 20
20 13 21 25 30 33 26 6 -4 2 4 -10 18 -29 30 -30 45 -3 18 12 -12 25 -18 30
-15 6 4 10 -2 11 -12 0 -14 2 -15 6 -3 3 8 11 18 17 22 8 5 7 8 -1 8 -7 0 -13
5 -13 11 0 6 7 9 14 6 10 -4 13 -1 10 7 -3 7 2 19 10 26 9 7 13 17 10 22 -4 5
-18 -8 -33 -29 -26 -39 -51 -49 -59 -24 -3 9 1 11 16 7 15 -5 24 1 40 29 16
26 26 33 39 28 10 -3 15 -2 11 2 -5 5 1 15 12 22 11 8 17 20 13 26 -3 7 2 5
13 -4 30 -25 48 -34 39 -19 -6 9 -2 10 16 5 23 -7 23 -7 4 8 -16 13 -17 17 -6
31 8 10 9 16 3 16 -15 0 -33 -35 -24 -46 4 -5 -3 0 -15 10 -13 11 -23 24 -22
30 0 6 3 5 6 -2 4 -10 9 -10 28 2 12 8 34 13 48 12 15 -2 24 1 21 5 -3 5 2 9
11 9 10 0 13 -5 9 -12 -4 -7 -3 -8 4 -4 6 4 9 13 6 21 -4 8 -10 12 -15 9 -5
-3 1 10 14 29 12 19 25 30 29 24 8 -13 -2 -38 -12 -32 -5 3 -11 1 -14 -4 -4
-5 -2 -12 3 -15 5 -4 13 -1 17 5 4 8 9 7 16 -2 7 -11 9 -11 7 1 -3 28 1 41 11
35 6 -3 7 1 4 9 -3 9 -10 13 -15 10 -5 -3 -9 -2 -9 3 0 4 16 18 36 31 20 13
33 26 30 30 -4 3 -12 0 -18 -6 -15 -15 -38 -16 -38 -1 0 5 5 7 10 4 6 -4 18
-1 26 6 8 6 18 9 21 5 11 -10 12 -37 2 -30 -5 3 -12 -2 -15 -10 -3 -9 -11 -13
-17 -9 -6 4 -7 1 -2 -7 6 -9 4 -11 -6 -5 -8 5 -6 -1 5 -13 10 -12 23 -19 27
-16 11 6 12 15 2 12 -5 -2 -8 2 -8 7 0 6 3 9 7 8 4 -2 4 5 1 14 -4 10 -2 14 5
9 6 -3 13 -2 17 4 4 6 12 7 18 3 7 -4 7 0 -1 10 -14 16 -9 37 8 37 5 0 7 -8 4
-17 -5 -17 -5 -17 6 0 6 9 16 15 21 11 5 -3 9 -2 8 3 -1 4 0 11 1 16 5 15 8
27 9 43 0 8 5 13 11 9 5 -3 7 -12 3 -20 -3 -8 0 -15 7 -15 6 0 9 4 6 9 -8 12
29 43 39 34 4 -5 5 -3 2 3 -6 10 1 21 42 70 10 12 -5 34 -23 34 -6 0 -5 -5 2
-12 16 -16 -3 -49 -24 -41 -13 5 -15 2 -10 -14 4 -12 1 -25 -9 -33 -18 -15
-20 0 -2 19 10 12 9 13 -7 7 -19 -7 -19 -6 -1 14 19 21 8 29 -13 8 -8 -8 -12
-8 -12 -1 0 17 29 24 51 13 13 -7 19 -7 19 0 0 5 -5 10 -10 10 -6 0 -15 11
-21 24 -6 13 -18 23 -28 21 -9 -1 -10 0 -3 2 7 3 10 8 7 13 -3 5 -1 12 5 15 6
4 10 3 9 -2 -4 -13 23 -63 33 -63 5 0 7 4 3 9 -9 15 15 24 30 11 11 -9 16 -7
24 8 6 11 8 22 4 25 -11 11 23 34 47 32 28 -3 53 13 44 27 -3 5 -13 3 -23 -6
-11 -10 -21 -12 -31 -6 -11 7 -12 10 -2 10 7 0 10 5 7 10 -3 6 -1 10 5 10 6 0
9 4 6 9 -3 5 1 14 9 21 10 9 15 9 15 1 0 -6 -4 -11 -8 -11 -4 0 -8 -9 -9 -21
-2 -17 1 -18 13 -9 11 10 17 10 30 0 12 -11 15 -11 12 0 -2 8 2 14 9 15 6 0
15 4 20 9 4 5 3 6 -4 2 -20 -11 -21 8 -2 28 19 19 19 19 19 0 0 -15 2 -16 9
-5 7 10 5 19 -6 26 -9 7 -13 17 -9 23 3 5 1 13 -4 15 -6 3 -5 4 2 3 7 -2 13
-8 13 -14 0 -7 4 -11 10 -9 5 1 8 9 6 17 -2 11 3 10 20 -5 15 -13 19 -14 11
-3 -11 14 -10 17 5 20 15 3 14 5 -5 10 -12 3 -20 2 -17 -2 4 -7 -17 -7 -35 0
-3 1 -13 2 -22 1 -10 -1 -18 2 -18 8 0 6 7 7 17 4 10 -4 14 -2 9 5 -10 16 16
27 28 11 14 -17 42 -23 51 -10 3 6 11 9 18 7 7 -1 9 -1 5 1 -4 2 -4 11 -1 19
4 12 8 12 22 2 14 -12 15 -11 2 5 -13 17 -16 17 -26 3 -7 -9 -16 -12 -20 -8
-5 4 -5 1 0 -7 6 -10 4 -12 -5 -6 -9 5 -11 4 -6 -3 4 -7 -6 -4 -23 6 -32 18
-35 30 -4 13 15 -8 26 -5 49 14 33 27 21 34 -15 9 -18 -13 -25 -14 -34 -4 -9
9 -8 11 3 9 27 -6 96 41 82 55 -3 4 1 4 11 0 17 -6 17 -7 1 -19 -19 -13 -28
-45 -13 -45 5 0 9 9 9 20 0 22 15 27 24 8 3 -7 3 1 0 19 -2 17 1 35 6 38 6 4
8 16 4 28 -6 22 -6 22 10 2 8 -11 16 -16 16 -11 0 5 8 2 18 -5 15 -13 16 -12
4 3 -17 22 3 35 26 16 15 -11 15 -11 5 3 -7 8 -10 27 -8 41 4 20 -1 32 -21 47
-15 12 -22 21 -16 21 6 0 14 -4 17 -10 3 -5 11 -10 16 -10 6 0 8 4 5 9 -3 5 1
11 9 15 8 3 15 10 15 16 0 6 -5 8 -12 4 -7 -4 -8 -3 -4 4 4 7 2 12 -3 12 -6 0
-11 5 -11 11 0 8 4 9 13 0 14 -11 27 -5 27 11 0 5 -4 6 -10 3 -6 -3 -7 1 -3
10 4 12 8 13 13 5 4 -7 10 -8 13 -3 4 6 21 10 39 10 27 1 29 -1 13 -7 -11 -5
-15 -9 -10 -9 12 -2 -16 -21 -30 -21 -5 0 -3 4 5 10 8 5 11 12 7 17 -14 14
-47 -39 -36 -59 6 -10 5 -19 -1 -23 -5 -3 -10 -3 -10 2 0 4 -5 0 -11 -10 -7
-13 -7 -22 0 -31 6 -7 7 -17 3 -21 -4 -5 -1 -5 6 -1 9 6 10 11 3 20 -6 7 -8
16 -4 19 3 4 12 -1 20 -11 13 -15 13 -15 4 4 -10 21 -6 34 11 34 5 0 6 -5 2
-12 -4 -7 -3 -8 5 -4 9 6 9 11 -1 24 -11 13 -10 15 5 9 11 -4 16 -3 12 4 -4 6
-13 8 -21 5 -8 -3 -14 -1 -14 4 0 6 8 10 19 10 10 0 24 7 31 15 7 8 16 13 20
10 4 -2 7 5 6 18 0 12 4 21 11 20 6 -1 10 5 8 15 -1 9 7 22 19 29 11 7 15 12
8 13 -7 0 -11 4 -7 10 3 5 11 8 18 6 7 -1 9 -1 5 1 -5 3 -8 9 -8 14 0 6 5 7
11 3 8 -4 7 0 -1 15 -6 12 -15 19 -20 16 -11 -7 -50 16 -50 29 0 4 8 2 17 -5
15 -12 16 -12 10 4 -4 11 -3 16 4 12 6 -4 8 -13 5 -21 -6 -16 5 -19 20 -4 13
13 46 2 38 -12 -4 -6 -10 -5 -15 3 -4 7 -10 11 -14 8 -3 -3 5 -14 17 -25 12
-10 18 -14 15 -7 -4 6 0 16 10 22 11 6 13 11 5 11 -7 0 -10 5 -6 12 4 6 3 8
-2 5 -17 -10 -10 37 9 63 20 29 23 47 4 32 -8 -7 -18 -7 -27 -2 -11 7 -11 10
-2 11 27 3 31 4 38 12 4 4 16 7 26 7 10 0 18 5 18 11 0 5 -5 7 -10 4 -6 -4 -5
5 2 20 7 15 17 24 25 21 8 -3 16 1 19 9 4 8 10 13 14 10 10 -6 20 7 25 36 6
31 -3 41 -28 28 -22 -10 -22 -10 -2 6 11 9 19 21 17 26 -1 5 2 9 8 9 5 0 10
-5 10 -11 0 -5 5 -7 12 -3 7 5 5 11 -7 21 -18 12 -10 19 18 14 4 0 7 6 7 15 0
8 -3 13 -7 11 -5 -2 -16 4 -25 15 -23 23 -17 23 21 0 28 -17 29 -20 16 -39 -8
-11 -11 -23 -8 -27 4 -3 -2 -12 -12 -20 -12 -8 -14 -15 -7 -20 12 -7 45 47 35
58 -4 3 -1 6 6 6 7 0 9 4 6 10 -3 5 2 10 12 11 14 0 14 2 -4 9 -13 5 -23 12
-23 15 0 4 5 3 10 0 6 -3 10 0 10 9 0 19 20 26 45 14 l20 -9 -20 16 c-20 16
-20 16 2 35 19 15 20 19 7 24 -23 9 -27 8 -21 -6 3 -8 -5 -14 -21 -15 -18 -1
-21 1 -11 8 12 8 12 10 -1 19 -11 7 -17 4 -22 -13 -6 -21 -6 -21 -7 -1 -1 28
8 35 30 24 19 -11 52 -3 44 11 -3 4 -13 6 -23 3 -14 -5 -14 -4 -2 4 10 8 18 8
27 0 18 -14 16 4 -2 28 -20 27 -19 37 3 16 11 -9 18 -19 16 -22 -1 -3 1 -12 5
-19 6 -9 11 -10 15 -2 4 6 2 11 -4 11 -6 0 -8 5 -5 10 4 7 14 6 28 -1 19 -8
20 -8 7 3 -21 18 -25 42 -6 35 9 -4 18 -1 22 5 4 7 3 8 -5 4 -6 -4 -14 0 -17
9 -6 14 -8 13 -21 -5 -8 -11 -11 -26 -7 -33 5 -8 2 -7 -9 2 -14 11 -15 16 -4
25 7 6 21 22 32 35 l20 24 -25 -7 c-19 -6 -21 -5 -10 3 13 9 13 11 -1 11 -23
0 -30 -11 -18 -27 9 -9 8 -13 0 -13 -6 0 -11 4 -11 9 0 5 -11 8 -25 6 -21 -2
-23 0 -13 12 8 10 13 11 18 3 5 -7 11 -6 20 5 9 10 22 14 36 11 13 -4 26 -1
29 4 4 6 15 8 25 5 10 -3 21 -1 25 4 4 7 -1 8 -12 4 -16 -6 -16 -5 -4 10 7 9
17 15 21 12 5 -3 12 -1 15 5 4 6 1 9 -6 8 -6 -2 -14 3 -17 11 -3 9 0 11 8 6 9
-6 11 -4 6 4 -5 7 -14 10 -22 7 -8 -3 -14 -1 -14 4 0 6 7 10 15 10 8 0 14 5
13 12 -4 18 -22 37 -30 31 -4 -2 -5 3 -2 11 5 13 9 12 25 -7 22 -27 25 -11 4
20 -10 14 -22 20 -33 17 -13 -5 -14 -4 -4 4 8 5 13 13 13 18 -1 5 5 9 12 9 6
0 12 -7 12 -15 1 -8 6 -24 12 -35 10 -17 14 -18 25 -6 7 8 8 11 2 8 -23 -13
-26 27 -4 45 12 10 19 18 15 18 -4 0 -2 6 4 13 6 8 8 16 5 20 -3 3 -1 14 6 24
9 16 10 15 4 -7 -5 -19 -3 -22 6 -14 6 7 10 22 8 35 l-3 24 -20 -20 c-23 -23
-47 -26 -51 -7 -1 7 0 8 3 2 3 -7 17 -3 37 9 21 13 36 17 46 11 16 -10 30 -4
30 12 0 5 -7 8 -15 5 -8 -4 -17 -2 -20 3 -3 5 -12 7 -19 4 -17 -6 -30 11 -21
27 5 7 16 2 31 -12 14 -13 24 -17 24 -10 0 7 5 9 10 6 6 -3 10 -1 10 5 0 7 -6
10 -14 7 -8 -3 -20 1 -26 9 -7 8 -9 14 -4 14 5 0 3 4 -5 9 -10 7 -19 4 -28 -7
-7 -9 -13 -13 -13 -8 0 6 -7 1 -16 -10 -14 -18 -15 -18 -4 4 6 12 15 20 19 17
5 -3 12 2 15 10 5 13 10 14 26 5 16 -8 25 -8 35 0 10 8 15 8 21 -1 5 -8 3 -9
-6 -4 -9 6 -11 4 -5 -5 5 -8 4 -11 -2 -7 -6 4 -13 0 -17 -8 -7 -20 -6 -19 34
10 19 14 29 25 22 25 -7 0 -12 5 -12 11 0 5 6 7 13 3 10 -6 10 -4 0 7 -7 7
-13 21 -13 32 0 12 -4 16 -12 11 -7 -4 -9 -3 -5 1 16 18 38 14 32 -5 -3 -10
-2 -21 3 -23 4 -3 8 10 7 30 0 26 -6 38 -24 47 -24 13 -24 13 -4 33 22 22 19
45 -5 36 -14 -5 -15 -4 -4 8 11 12 15 11 26 -3 7 -10 12 -31 11 -48 -1 -16 2
-30 7 -30 4 0 8 13 8 29 0 17 5 33 10 36 6 3 10 1 10 -4 0 -6 5 -11 12 -11 9
0 9 3 1 11 -9 9 -7 18 5 37 12 18 13 24 3 18 -9 -6 -12 -5 -9 5 3 8 11 13 17
11 7 -1 10 2 6 8 -5 8 -12 7 -22 -2 -14 -11 -15 -10 -9 10 6 18 4 21 -11 16
-15 -5 -16 -4 -3 5 13 10 13 12 0 22 -13 9 -12 10 2 5 10 -3 20 -1 23 4 4 6 1
10 -5 10 -6 0 -9 4 -6 9 4 5 0 12 -6 14 -10 4 -10 6 0 6 7 1 15 -6 18 -14 5
-11 10 -12 26 -4 14 7 17 14 10 21 -12 12 -4 40 9 32 5 -3 7 -9 5 -13 -3 -4 1
-8 9 -8 10 0 12 4 5 12 -5 7 -6 16 -2 20 4 5 1 5 -5 1 -7 -4 -13 -3 -13 3 0 6
-8 8 -17 5 -14 -5 -15 -4 -4 4 8 6 21 8 30 5 9 -3 3 4 -12 14 l-28 20 27 18
c17 11 23 12 18 4 -10 -16 -15 -43 -7 -35 4 3 13 0 22 -7 14 -10 14 -10 3 4
-14 18 -11 54 5 70 6 6 9 18 6 26 -3 8 0 19 8 24 9 6 3 8 -19 4 -23 -4 -34 -1
-38 10 -8 20 -24 9 -18 -13 5 -14 4 -15 -5 -2 -8 11 -5 20 10 35 l20 20 19
-25 c13 -16 20 -20 20 -10 0 8 -9 26 -20 40 -11 14 -20 30 -19 35 0 6 4 2 10
-7 5 -10 15 -18 21 -18 7 0 7 4 -1 13 -8 10 -7 17 1 25 8 8 8 16 -3 28 -9 12
-10 15 -1 10 11 -7 16 4 13 30 -1 6 8 19 18 28 16 15 18 22 9 41 -6 13 -16 22
-22 21 -6 -2 -8 -1 -3 1 4 3 4 10 1 15 -5 7 -2 8 7 2 8 -5 26 -9 42 -10 26 -2
34 6 20 20 -12 12 -12 36 0 36 7 1 2 9 -11 20 -14 12 -22 27 -19 37 4 17 5 17
6 0 1 -11 6 -15 13 -11 6 4 8 3 5 -2 -3 -6 2 -15 12 -21 14 -9 18 -8 18 3 0 7
-4 11 -9 8 -4 -3 -8 -1 -8 5 0 5 6 12 13 15 6 3 3 4 -8 3 -15 -1 -19 3 -18 19
1 12 -4 21 -12 21 -8 0 -15 -4 -15 -8 0 -5 -9 -13 -20 -19 -14 -7 -20 -7 -20
0 0 5 7 10 16 10 8 0 12 5 9 10 -6 9 8 14 27 11 13 -2 2 40 -13 50 -9 5 -10 9
-2 9 6 0 15 -4 18 -10 3 -5 11 -10 17 -10 7 0 7 4 -1 13 -8 10 -7 17 2 26 9
10 8 12 -7 9 -10 -1 -20 3 -22 10 -1 7 0 8 3 2 8 -16 23 -1 17 18 -3 9 1 6 9
-8 8 -13 13 -32 12 -42 -2 -10 0 -18 6 -18 5 0 10 5 10 10 1 6 3 19 4 30 1 11
4 22 5 25 1 3 3 13 4 23 1 9 5 22 9 29 4 6 3 14 -3 18 -15 9 -12 25 4 19 8 -3
16 -1 20 4 6 10 -24 9 -42 -2 -7 -4 -14 -6 -15 -5 -2 2 -9 13 -17 24 -8 11
-10 17 -5 12 4 -4 17 5 27 20 30 46 20 51 -17 9 -19 -22 -35 -35 -35 -28 0 6
8 16 18 21 9 6 13 11 9 11 -5 0 5 12 22 26 17 14 28 30 25 35 -3 5 -14 -1 -25
-13 -12 -13 -18 -17 -14 -10 3 6 1 12 -4 12 -6 0 -11 5 -11 11 0 8 5 8 15 -1
18 -15 20 1 3 18 -9 9 -9 12 0 12 7 0 12 -5 12 -11 0 -5 4 -8 10 -4 5 3 7 12
4 20 -4 8 -9 13 -13 11 -4 -3 -7 4 -7 14 0 10 3 17 6 15 3 -2 11 5 18 15 10
16 7 22 -19 41 -21 15 -27 25 -20 32 7 7 15 6 25 -2 10 -8 16 -9 21 -1 3 5 1
10 -6 10 -7 0 -9 3 -6 7 4 3 -2 13 -14 21 -15 10 -18 17 -10 25 17 17 13 31
-4 17 -10 -9 -15 -9 -15 -1 0 6 4 11 8 11 5 0 14 10 19 23 10 20 10 20 9 -10
-1 -17 -5 -35 -8 -39 -4 -4 4 -18 18 -31 26 -24 26 -24 8 -45 -17 -19 -17 -21
-2 -15 10 3 20 1 24 -5 5 -7 2 -8 -6 -3 -10 6 -12 4 -7 -8 3 -9 2 -19 -3 -22
-6 -4 -10 -11 -10 -16 0 -6 4 -8 8 -5 5 3 9 -1 9 -9 0 -12 -3 -12 -16 -2 -12
10 -14 9 -7 -8 5 -11 9 -25 9 -30 0 -6 9 -11 19 -11 18 0 18 1 2 13 -10 7 -13
13 -7 13 10 0 14 30 13 113 0 15 7 72 10 72 1 0 3 10 6 22 3 17 -1 21 -16 20
-11 -1 -20 -5 -20 -10 0 -5 7 -6 16 -3 13 5 14 4 6 -7 -7 -8 -8 -18 -4 -22 4
-5 1 -5 -5 -1 -7 4 -13 2 -13 -3 0 -6 5 -11 12 -11 6 0 9 -2 6 -5 -10 -10 -38
7 -31 19 13 20 10 60 -5 79 -20 22 -31 22 -25 -2 3 -10 0 -22 -5 -25 -7 -4
-10 4 -8 19 4 33 12 41 30 26 8 -7 20 -10 25 -7 5 4 13 1 17 -5 4 -8 3 -9 -4
-5 -7 4 -12 2 -12 -3 0 -6 5 -11 11 -11 5 0 7 -4 4 -10 -3 -6 1 -7 10 -3 9 3
13 9 8 12 -14 10 -16 44 -2 35 8 -4 10 -3 5 5 -4 6 -12 8 -18 5 -7 -4 -8 -2
-4 4 4 7 1 12 -9 12 -9 0 -13 -4 -10 -10 3 -5 1 -10 -4 -10 -13 0 -14 10 -3
27 5 8 13 9 22 3 8 -6 19 -10 23 -10 14 0 -4 21 -27 31 l-21 10 21 -4 c12 -3
28 -1 35 4 12 7 12 9 0 9 -11 0 -11 3 0 18 7 9 9 14 5 10 -5 -4 -16 -2 -24 5
-13 9 -14 9 -8 0 4 -7 2 -13 -3 -13 -12 0 -14 13 -4 24 14 14 10 35 -8 41 -10
4 -19 13 -19 21 0 19 -10 18 -27 -3 -13 -16 -13 -16 -3 5 6 12 14 22 19 22 5
0 15 -10 24 -22 8 -13 19 -19 23 -15 5 4 2 12 -6 17 -13 9 -13 10 0 11 10 0 9
3 -5 10 l-20 9 20 -3 c15 -2 20 -10 19 -29 0 -15 2 -25 5 -23 2 3 11 -1 20 -8
12 -10 12 -7 -2 12 -15 22 -15 27 -2 42 14 14 14 18 0 29 -18 15 -20 34 -2 24
9 -6 9 -4 1 7 -5 8 -9 30 -8 49 0 19 -2 40 -6 45 -6 9 -6 28 0 40 1 3 3 9 4
14 0 5 4 13 9 17 4 4 7 12 7 18 0 6 -5 4 -10 -4 -11 -17 -11 -16 -14 23 -2 15
2 27 8 27 7 0 8 3 1 8 -11 7 -13 40 -4 57 11 20 4 48 -14 51 -9 1 -15 -2 -11
-7 3 -5 10 -7 15 -4 14 9 5 -30 -11 -50 -12 -14 -12 -18 1 -27 11 -8 10 -9 -4
-4 -10 3 -21 6 -23 6 -2 0 3 11 11 24 12 19 14 30 6 44 -6 11 -8 22 -4 25 3 4
0 13 -7 22 -7 8 -10 15 -6 15 3 0 -2 8 -11 18 -10 11 -21 17 -25 15 -4 -2 -5
3 -1 13 5 15 7 14 17 -3 6 -11 16 -18 23 -16 7 3 11 -3 8 -15 -3 -15 1 -19 16
-15 25 7 33 20 18 29 -8 4 -9 3 -5 -4 4 -7 1 -12 -9 -12 -9 0 -14 4 -10 9 3 5
1 12 -5 16 -6 4 -7 11 -4 17 5 7 1 9 -9 5 -11 -4 -14 -2 -10 9 4 11 9 12 19 3
8 -6 11 -15 8 -20 -3 -5 0 -9 5 -9 14 0 14 17 0 25 -5 4 -9 19 -7 33 2 17 -2
26 -9 25 -7 -2 -10 4 -6 12 4 13 8 13 22 3 13 -10 13 -9 -1 8 -10 11 -18 24
-18 29 0 4 8 1 18 -6 15 -12 15 -11 -1 8 -13 14 -15 23 -7 28 8 5 8 11 1 19
-6 7 -8 16 -4 19 3 4 1 7 -5 7 -15 0 -16 -17 -2 -25 8 -5 7 -11 -1 -21 -6 -8
-8 -14 -3 -14 4 0 3 -5 -4 -12 -16 -16 -15 -31 1 -21 6 4 1 -7 -13 -24 -14
-17 -27 -29 -29 -27 -2 2 4 13 14 24 12 13 14 20 5 20 -10 0 -10 3 1 16 15 18
25 69 11 61 -12 -8 -38 10 -29 20 5 4 12 1 17 -7 6 -8 10 -10 10 -4 0 5 -6 16
-12 24 -11 12 -10 12 2 3 11 -8 20 -9 30 -1 12 8 12 9 -2 4 -12 -3 -18 0 -18
10 0 9 5 12 12 8 7 -4 8 -3 4 5 -4 6 -2 19 6 28 9 12 9 15 1 9 -13 -7 -17 4
-14 32 1 6 -3 12 -9 12 -6 0 -9 -4 -5 -9 11 -18 -15 -22 -33 -5 -16 17 -16 18
1 11 11 -4 20 -1 23 8 4 8 11 12 17 8 6 -4 7 -1 1 8 -13 21 -15 81 -2 73 7 -4
8 -2 4 5 -4 6 -12 9 -17 6 -15 -10 -10 7 9 29 14 17 14 19 0 8 -13 -11 -18
-11 -24 0 -14 22 -13 40 1 34 12 -4 12 0 3 19 -6 14 -16 25 -21 25 -5 0 -4 -6
2 -14 8 -10 9 -16 1 -21 -6 -3 -8 -11 -5 -16 4 -5 1 -9 -5 -9 -6 0 -9 -4 -6
-8 2 -4 -4 -14 -16 -21 -11 -7 -17 -8 -14 -3 3 6 3 12 -1 15 -5 2 -3 2 4 1 7
-2 15 7 19 19 11 32 11 40 1 55 -7 9 -6 17 2 25 10 9 11 9 8 -3 -2 -8 -2 -12
0 -7 3 4 10 4 15 1 6 -4 8 -2 4 4 -3 5 0 13 6 15 7 3 -4 4 -24 2 -38 -4 -58 9
-40 27 7 7 18 6 33 -3 21 -11 22 -10 12 3 -10 11 -10 17 0 28 10 12 9 12 -5 1
-11 -8 -18 -9 -18 -3 0 6 5 14 10 17 6 4 7 12 3 18 -4 7 -8 16 -8 21 0 5 -7
11 -15 13 -12 4 -12 3 -1 -5 9 -7 10 -11 2 -17 -9 -5 -9 -10 0 -21 8 -10 8
-14 0 -14 -11 0 -15 13 -11 39 1 13 -1 13 -14 2 -13 -11 -14 -17 -4 -30 7 -9
18 -19 23 -23 6 -5 5 -8 -3 -8 -7 0 -15 7 -18 15 -4 8 -10 13 -14 10 -14 -9
-5 23 13 43 16 18 14 32 -5 32 -5 0 -6 -4 -3 -10 3 -5 1 -10 -4 -10 -14 0 -14
13 1 28 15 15 29 15 26 0 -2 -6 6 -13 17 -14 18 -3 18 -2 1 3 -15 4 -16 7 -5
14 10 6 10 9 2 9 -7 0 -13 7 -13 15 0 8 5 15 12 15 6 0 8 3 5 7 -4 3 -16 -2
-27 -12 -16 -14 -22 -15 -35 -5 -8 7 -15 20 -14 29 0 12 2 11 9 -4 9 -22 10
-21 14 13 2 16 -5 29 -21 39 -12 8 -23 23 -22 32 0 13 2 13 6 1 4 -8 17 -23
29 -33 13 -10 21 -24 18 -31 -6 -17 12 -31 21 -16 3 5 2 10 -4 10 -5 0 -8 12
-6 26 1 14 -4 32 -12 40 -11 11 -12 14 -1 14 8 0 7 4 -4 11 -27 15 -22 32 5
19 20 -10 20 -10 5 3 -21 16 -24 32 -5 21 8 -5 8 -2 -2 9 -16 20 -33 22 -30 5
4 -34 0 -41 -17 -27 -15 12 -16 11 -10 -8 4 -12 2 -24 -3 -27 -6 -4 -9 5 -7
21 1 22 6 27 21 25 18 -4 18 -2 -4 22 -13 14 -28 23 -34 19 -6 -3 -7 -1 -3 6
4 6 0 23 -8 36 -9 14 -12 25 -7 25 5 0 15 -13 23 -30 14 -32 28 -40 28 -16 0
8 -14 28 -30 46 -17 18 -29 33 -28 34 2 1 12 8 22 16 11 8 17 10 13 3 -4 -6
-2 -15 5 -19 7 -4 10 -4 6 1 -4 4 -2 15 5 23 9 13 9 14 0 8 -13 -7 -17 3 -14
36 1 10 -5 28 -13 40 -14 19 -14 23 1 33 13 10 13 14 3 20 -9 5 -11 4 -6 -3 4
-7 2 -12 -3 -12 -10 0 -15 14 -12 33 1 4 -8 3 -18 -3 -13 -7 -22 -7 -26 0 -6
10 -5 11 14 14 5 0 13 5 18 10 5 5 2 6 -6 1 -11 -7 -13 -2 -8 26 6 30 5 31 -5
14 -7 -11 -13 -24 -13 -29 0 -24 -22 -14 -22 10 0 18 2 22 8 13 6 -10 9 -8 9
9 0 12 5 22 12 22 6 0 8 3 5 6 -4 4 -13 1 -22 -6 -11 -9 -15 -9 -15 -1 0 7 -5
9 -12 5 -10 -6 -10 -4 0 8 8 10 9 19 3 22 -5 3 -12 0 -15 -6 -3 -7 -3 3 0 22
4 28 3 33 -7 23 -7 -7 -17 -13 -23 -13 -5 0 -1 7 10 16 17 14 17 15 1 10 -11
-3 -16 -2 -12 4 11 18 33 11 41 -12 5 -13 7 -26 6 -29 -1 -4 9 -4 21 -1 19 5
19 7 4 10 -11 2 -16 9 -13 18 3 8 -1 17 -10 21 -13 5 -13 8 -2 15 9 6 6 7 -8
3 -17 -4 -22 -1 -20 12 1 12 -5 17 -19 16 -12 -1 -26 7 -34 20 -14 22 -14 22
8 3 12 -11 21 -14 21 -7 0 9 5 9 21 1 11 -7 23 -9 27 -6 3 3 0 6 -7 6 -7 0 -9
4 -6 10 4 6 -1 7 -11 3 -12 -5 -15 -3 -9 6 5 10 2 11 -14 6 -19 -6 -26 2 -22
27 0 4 -10 15 -24 24 -24 16 -25 40 -1 31 6 -2 19 5 29 15 18 19 9 26 -10 7
-7 -7 -10 -3 -10 15 0 14 2 24 6 22 4 -3 7 4 7 15 0 19 -1 19 -13 3 -12 -16
-18 -12 -14 9 1 4 -7 3 -18 -3 -25 -13 -41 -13 -21 0 13 9 13 10 0 11 -8 1
-18 1 -22 0 -14 -2 -8 11 13 28 19 16 20 20 8 42 -7 13 -12 30 -11 37 2 6 -2
12 -7 12 -5 0 -8 -9 -6 -20 3 -13 0 -18 -7 -14 -7 4 -8 2 -4 -5 4 -6 12 -9 17
-6 5 4 7 -4 6 -17 -2 -13 -8 -22 -13 -20 -5 2 -8 10 -6 19 2 10 -1 12 -10 7
-7 -4 -10 -4 -6 1 4 4 2 15 -4 23 -10 11 -9 17 6 28 11 7 16 20 13 29 -8 18
-28 20 -47 3 -11 -10 -11 -9 0 6 14 18 13 19 -3 13 -14 -5 -16 -3 -8 11 5 10
6 24 1 32 -4 7 -7 22 -5 32 2 10 0 18 -6 18 -5 0 -8 3 -8 8 3 19 -2 33 -11 27
-6 -4 -8 6 -6 25 2 17 1 28 -2 25 -3 -2 -11 0 -19 6 -10 9 -17 8 -30 -2 -10
-8 -14 -9 -10 -2 4 6 3 14 -3 18 -6 4 -8 11 -5 16 4 5 1 9 -5 9 -7 0 -10 5 -8
11 2 6 8 9 13 7 6 -2 9 -6 8 -10 -2 -5 3 -8 10 -8 9 0 8 -3 -2 -9 -9 -6 -10
-11 -2 -15 6 -4 11 -2 11 4 0 6 4 9 8 6 5 -3 9 1 9 9 0 8 -5 11 -10 8 -6 -4
-8 1 -4 11 4 9 3 14 -2 11 -5 -3 -12 -1 -16 5 -3 5 0 10 7 10 7 0 3 7 -9 15
-12 9 -20 22 -17 29 3 8 1 17 -5 21 -6 3 -9 0 -6 -7 4 -9 -4 -14 -22 -15 -16
0 -20 1 -10 4 12 3 16 12 14 31 -4 30 -37 44 -37 17 0 -14 3 -15 14 -6 12 10
14 9 12 -6 -4 -23 -17 -20 -35 6 -10 15 -10 21 -2 21 7 0 9 4 6 10 -3 6 1 7
12 4 14 -4 14 -3 -2 8 -22 14 -27 45 -6 40 7 -1 10 2 6 8 -5 8 -11 8 -19 1 -7
-6 -17 -7 -21 -3 -5 4 -4 0 1 -8 13 -23 16 -52 3 -45 -6 4 -8 13 -5 21 3 8 -2
18 -10 21 -14 5 -12 8 7 19 15 8 18 13 9 14 -13 0 -13 1 0 11 12 8 9 9 -10 4
-25 -6 -25 -6 -5 11 16 14 17 16 3 11 -21 -7 -23 3 -5 23 10 12 9 12 -5 2 -11
-9 -18 -10 -23 -2 -3 5 -12 10 -18 10 -7 0 -4 -5 6 -11 9 -6 15 -14 12 -20 -4
-5 -1 -9 5 -9 6 0 9 -4 5 -9 -3 -6 3 -14 12 -20 10 -6 14 -10 8 -11 -19 0 -36
17 -38 38 -1 12 -8 22 -15 22 -9 0 -12 6 -8 16 3 9 6 18 6 20 0 3 4 3 8 0 5
-3 9 1 9 9 0 13 -3 13 -17 0 -16 -14 -19 -14 -32 7 -8 13 -16 28 -18 33 -6 25
-22 45 -32 39 -6 -4 -8 -3 -4 4 3 5 0 12 -6 15 -10 3 -10 8 1 21 13 16 13 17
-3 14 -11 -2 -28 10 -44 31 -15 19 -21 32 -14 27 6 -4 12 -3 12 2 0 5 -12 14
-26 20 -15 7 -22 17 -18 24 5 8 11 6 19 -5 14 -20 31 -22 41 -5 5 8 2 9 -9 5
-9 -3 -19 -2 -22 3 -3 4 1 10 7 13 7 2 1 4 -13 4 -30 1 -71 32 -61 47 13 21 9
32 -10 32 -18 0 -18 -1 -2 -13 10 -7 13 -13 7 -13 -13 0 -39 30 -27 30 5 0 0
8 -11 17 l-20 16 20 -8 c11 -4 27 -9 35 -12 8 -3 5 2 -8 11 -12 10 -31 18 -41
19 -15 1 -17 5 -10 18 6 12 4 19 -6 22 -10 4 -12 1 -8 -11 3 -9 -11 5 -32 32
-21 27 -40 59 -41 70 -1 12 -3 24 -3 29 -1 4 -6 7 -12 7 -8 0 -8 -4 0 -14 8
-9 8 -16 2 -20 -14 -9 -19 4 -15 38 3 26 2 27 -12 10 -14 -18 -14 -18 -7 0 4
13 3 17 -5 12 -7 -4 -12 -1 -12 9 0 9 -4 14 -9 11 -5 -3 -14 1 -21 9 -10 12
-10 18 -1 29 10 12 8 13 -9 9 -17 -4 -21 -2 -18 12 2 10 -4 20 -12 22 -13 4
-13 3 0 -6 8 -6 11 -11 6 -11 -18 0 -45 32 -39 47 4 10 0 14 -13 11 -10 -2
-19 3 -19 9 0 7 -10 20 -23 28 -19 14 -20 20 -11 38 9 18 9 20 -2 10 -19 -18
-28 -16 -22 6 3 10 0 22 -6 25 -7 5 -9 0 -5 -11 4 -12 -4 -8 -23 12 -17 17
-29 33 -26 38 2 4 -2 7 -10 7 -7 0 -24 11 -37 25 -21 22 -22 25 -5 25 10 0 15
-3 12 -7 -9 -8 12 -33 27 -33 6 0 4 5 -4 10 -8 5 -15 15 -15 22 0 7 -11 15
-24 16 -22 3 -82 52 -64 52 4 0 -3 6 -16 13 -13 6 -23 16 -22 21 1 5 -8 14
-21 20 -14 7 -23 21 -22 34 0 16 -3 19 -11 12 -9 -7 -17 -5 -26 7 -12 14 -12
16 0 8 10 -6 12 -4 7 4 -4 7 -13 10 -19 8 -7 -2 -17 2 -24 9 -15 15 -17 28 -3
19 6 -3 10 -1 10 5 0 7 -7 9 -16 6 -10 -4 -26 3 -42 19 -13 14 -29 25 -34 25
-5 0 -6 10 -3 23 5 16 4 18 -4 7 -8 -12 -15 -9 -40 17 -16 17 -32 29 -35 25
-3 -3 -6 2 -6 12 0 9 -4 15 -9 11 -5 -3 -17 5 -25 17 -9 12 -16 19 -16 14 0
-5 -7 -3 -15 4 -8 7 -12 17 -8 23 3 5 1 7 -5 3 -6 -3 -22 4 -35 16 -14 13 -35
30 -47 38 -52 35 -70 52 -64 61 3 5 2 8 -3 7 -20 -5 -54 15 -49 28 3 8 1 12
-4 9 -13 -8 -52 14 -45 25 3 6 -1 7 -9 4 -9 -4 -18 1 -22 10 -3 9 -10 16 -15
16 -15 0 -119 77 -112 84 3 3 -1 6 -10 6 -24 0 -78 35 -69 45 4 5 2 5 -4 2
-15 -9 -76 31 -68 45 4 7 3 8 -4 4 -11 -7 -104 40 -110 56 -2 4 -8 8 -13 8 -5
0 -45 20 -89 45 -458 260 -1065 483 -1575 579 -203 39 -424 70 -565 81 -41 3
-90 8 -108 11 -38 6 -577 15 -583 10z m4988 -2838 c-6 -3 -17 -3 -26 0 -10 4
-11 7 -3 10 7 2 12 8 12 13 0 4 -8 6 -17 3 -15 -5 -15 -4 -3 5 10 7 19 5 31
-7 10 -11 12 -19 6 -24z m65 -133 c-3 -18 0 -24 9 -22 8 2 10 2 6 -1 -4 -2 -3
-10 4 -18 7 -8 9 -17 6 -21 -4 -3 -2 -15 4 -27 10 -21 10 -21 -6 -1 -8 11 -13
25 -11 31 3 7 -2 18 -10 24 -8 7 -14 20 -14 29 0 9 -5 22 -11 28 -6 6 -8 17
-4 24 12 19 33 -16 27 -46z m98 -148 c0 -2 -9 -12 -20 -22 -24 -21 -27 -14 -4
9 15 15 24 20 24 13z m75 -188 c-4 -5 -1 -9 5 -9 7 0 4 -7 -5 -16 -9 -9 -19
-13 -23 -10 -3 4 0 11 8 16 14 9 13 11 -9 14 -5 0 -13 5 -18 10 -4 5 -3 6 4 2
6 -3 14 -2 18 4 4 6 11 8 16 4 5 -3 7 -10 4 -15z m65 -199 c-6 -11 -13 -20
-16 -20 -2 0 0 9 6 20 6 11 13 20 16 20 2 0 0 -9 -6 -20z m110 -232 c0 -4 0
-10 0 -13 0 -3 7 -19 15 -35 15 -30 13 -50 -6 -50 -5 0 -9 9 -9 21 0 11 -4 17
-10 14 -5 -3 -10 -1 -10 4 0 6 5 11 10 11 20 0 9 21 -20 38 l-30 19 30 0 c17
0 30 -4 30 -9z m-28 -32 c7 4 8 2 4 -5 -9 -13 -26 -5 -25 12 0 9 2 8 6 -1 2
-6 10 -9 15 -6z m28 -92 c0 -8 -4 -14 -8 -14 -4 0 -8 9 -8 19 0 11 4 17 8 15
4 -3 8 -12 8 -20z m30 12 c0 -3 -4 -8 -10 -11 -5 -3 -10 -1 -10 4 0 6 5 11 10
11 6 0 10 -2 10 -4z m65 -234 c-3 -3 3 -14 12 -25 17 -19 17 -19 -4 -6 -25 15
-39 51 -16 42 7 -3 11 -8 8 -11z m-7 -68 c2 -1 -5 -5 -15 -8 -9 -4 -14 -4 -10
0 4 4 1 14 -6 23 -11 14 -10 15 8 1 11 -8 21 -15 23 -16z m12 -78 c0 -3 -4 -8
-10 -11 -5 -3 -10 -1 -10 4 0 6 5 11 10 11 6 0 10 -2 10 -4z m20 -126 c0 -5
-2 -10 -4 -10 -3 0 -8 5 -11 10 -3 6 -1 10 4 10 6 0 11 -4 11 -10z m23 -56
c-7 -3 -9 -12 -6 -20 3 -8 1 -14 -5 -14 -8 0 -9 16 -3 38 1 1 7 2 14 1 9 0 9
-2 0 -5z m14 -56 c-3 -7 -5 -2 -5 12 0 14 2 19 5 13 2 -7 2 -19 0 -25z m-19
-13 c-3 -3 -9 2 -12 12 -6 14 -5 15 5 6 7 -7 10 -15 7 -18z m67 -60 c-2 -14 2
-25 8 -25 8 0 7 -4 -1 -12 -14 -14 -16 -32 -3 -24 5 4 8 -1 7 -9 -3 -21 -16
-31 -16 -12 0 9 -8 21 -17 26 -17 10 -17 10 0 11 9 0 17 4 17 9 0 17 -28 31
-46 25 -12 -5 -9 2 10 19 34 30 44 28 41 -8z m-25 -30 c0 -7 -30 -13 -34 -7
-3 4 4 9 15 9 10 1 19 0 19 -2z m-3 -57 c-3 -8 -6 -5 -6 6 -1 11 2 17 5 13 3
-3 4 -12 1 -19z m-7 -28 c0 -5 -2 -10 -4 -10 -3 0 -8 5 -11 10 -3 6 -1 10 4
10 6 0 11 -4 11 -10z m24 -41 c-2 -4 4 -13 13 -20 14 -12 15 -11 9 9 -4 13 -3
22 3 22 17 0 21 -16 8 -33 -11 -15 -14 -14 -35 3 -14 12 -20 24 -16 35 5 13 9
14 15 4 4 -7 6 -16 3 -20z m6 -49 c0 -5 -4 -10 -10 -10 -5 0 -10 5 -10 10 0 6
5 10 10 10 6 0 10 -4 10 -10z m-19 -27 c13 -16 12 -17 -3 -4 -17 13 -22 21
-14 21 2 0 10 -8 17 -17z m14 -42 c-3 -6 -11 -11 -16 -11 -5 0 -4 6 3 14 14
16 24 13 13 -3z m12 -29 c-8 -9 -12 -22 -10 -29 2 -6 0 -14 -5 -17 -12 -7 -8
24 9 58 7 15 15 23 17 17 2 -7 -3 -20 -11 -29z m47 -66 c-3 -9 -12 -12 -22 -9
-15 6 -9 11 25 22 1 1 0 -5 -3 -13z m-24 -24 c0 -4 -9 -8 -20 -9 -11 -1 -20 2
-20 5 0 4 9 8 20 9 11 1 20 -2 20 -5z m0 -87 c0 -2 -8 -1 -17 2 -16 6 -16 5
-4 -10 9 -11 10 -17 2 -17 -6 0 -11 3 -12 8 0 4 -2 15 -4 24 -3 15 0 16 16 8
10 -6 19 -13 19 -15z m0 -50 c0 5 5 4 11 -2 13 -13 2 -56 -12 -48 -15 10 -10
-12 7 -29 8 -9 10 -16 4 -16 -6 0 -13 7 -16 15 -4 8 -11 12 -16 9 -6 -4 -5 3
1 15 7 11 16 21 21 21 6 0 10 7 10 15 0 8 -5 14 -11 13 -6 -2 -14 4 -16 12 -4
13 -3 13 6 0 6 -8 11 -11 11 -5z m0 -105 c8 -5 11 -10 5 -10 -5 0 -17 5 -25
10 -8 5 -10 10 -5 10 6 0 17 -5 25 -10z m-17 -35 c-7 -21 -12 -19 -10 4 0 11
5 18 9 15 4 -3 5 -11 1 -19z m50 13 c-13 -6 -23 -15 -23 -20 0 -12 14 -10 29
5 10 8 12 8 7 0 -3 -6 -2 -14 3 -17 13 -8 6 -42 -8 -38 -6 1 -11 -2 -11 -8 0
-5 6 -10 13 -11 8 0 8 -2 -2 -6 -11 -4 -11 -7 -1 -13 7 -5 14 -29 15 -54 1
-26 0 -44 -3 -42 -2 3 -14 -1 -26 -9 -11 -8 -25 -15 -31 -15 -5 0 5 9 23 20
17 11 32 24 32 30 0 14 -18 12 -22 -2 -3 -7 -5 2 -5 20 0 18 4 28 7 21 5 -7
10 -8 14 -1 9 14 -32 42 -53 35 -13 -4 -13 -3 -2 5 8 6 21 8 30 5 13 -5 13 -3
4 7 -9 10 -7 16 9 30 15 12 18 19 10 24 -7 4 -12 2 -12 -5 0 -8 -5 -7 -17 2
-15 12 -16 12 -10 -3 8 -22 -11 -34 -26 -19 -9 9 -7 10 7 5 14 -5 17 -4 12 5
-11 16 20 61 42 60 13 0 12 -3 -5 -11z m-26 -175 c-1 -14 -8 -28 -15 -29 -7
-1 -8 0 -2 3 17 8 11 23 -7 16 -14 -5 -13 -3 3 14 10 12 20 22 21 22 1 1 1
-11 0 -26z m66 -86 c-4 -6 -10 -2 -16 11 -9 20 -11 20 -36 5 l-26 -15 24 21
c22 20 25 20 42 5 10 -9 16 -21 12 -27z m-43 -79 c0 -4 -9 -12 -20 -18 -14 -7
-20 -7 -20 0 0 5 7 10 16 10 8 0 12 5 9 10 -4 7 -14 6 -28 -1 -20 -9 -20 -9
-5 4 10 8 14 17 10 22 -4 4 3 1 16 -6 12 -8 22 -17 22 -21z m-13 -53 c-7 -17
-27 -21 -27 -4 0 5 5 7 10 4 6 -3 10 2 10 11 0 10 3 15 6 11 4 -3 4 -13 1 -22z
m40 1 c0 -8 -6 -12 -15 -9 -11 5 -11 7 0 14 7 5 13 9 14 9 0 0 1 -6 1 -14z
m-67 -40 c0 -3 -4 -8 -10 -11 -5 -3 -10 -1 -10 4 0 6 5 11 10 11 6 0 10 -2 10
-4z m0 -180 c0 -2 -7 -7 -16 -10 -8 -3 -12 -2 -9 4 6 10 25 14 25 6z m15 -78
c5 4 5 1 1 -5 -10 -18 -26 -16 -26 2 0 8 -6 13 -12 11 -7 -1 -10 -1 -5 1 4 3
5 10 1 16 -3 7 3 2 14 -10 11 -12 23 -19 27 -15z m-28 -49 c1 -19 1 -20 -4 -4
-3 11 -10 24 -17 28 -7 6 -6 7 4 4 8 -2 16 -14 17 -28z m-12 -40 c-4 -5 -12
-9 -18 -8 -9 0 -8 2 1 6 6 2 9 10 6 15 -4 7 -2 8 5 4 6 -4 9 -12 6 -17z m0
-58 c-3 -6 -11 -11 -16 -11 -5 0 -4 6 3 14 14 16 24 13 13 -3z m-5 -81 c-8 -5
-19 -10 -25 -10 -5 0 -3 5 5 10 8 5 20 10 25 10 6 0 3 -5 -5 -10z m15 -20 c-3
-5 -11 -10 -16 -10 -6 0 -7 5 -4 10 3 6 11 10 16 10 6 0 7 -4 4 -10z m53 -9
c2 -1 0 -7 -5 -13 -4 -7 -8 -21 -8 -30 0 -10 -3 -18 -7 -18 -5 0 -8 3 -7 6 2
17 -27 22 -38 7 -21 -28 -14 -3 7 27 17 24 28 28 58 21z m-82 -30 c-4 -6 -13
-11 -19 -10 -9 0 -9 2 0 5 7 3 9 13 6 22 -5 13 -3 14 7 5 7 -6 9 -16 6 -22z
m-6 -41 c0 -5 -2 -10 -4 -10 -3 0 -8 5 -11 10 -3 6 -1 10 4 10 6 0 11 -4 11
-10z m-6 -43 c-9 -5 -18 -6 -21 -3 -4 3 -1 6 7 6 10 0 10 3 -1 17 -13 15 -12
15 8 2 19 -11 20 -15 7 -22z m-25 -71 c-13 -11 -18 -14 -11 -5 7 9 8 20 4 24
-4 5 -1 5 6 1 8 -5 12 0 13 16 1 19 2 20 6 4 3 -11 -4 -27 -18 -40z m31 -72
c0 -2 -7 -4 -15 -4 -8 0 -15 4 -15 10 0 5 7 7 15 4 8 -4 15 -8 15 -10z m-9
-24 c5 0 9 -5 9 -10 0 -6 -11 -3 -25 6 -14 9 -25 21 -25 26 0 5 7 2 16 -6 8
-9 20 -16 25 -16z m34 10 c3 -5 1 -10 -4 -10 -6 0 -11 5 -11 10 0 6 2 10 4 10
3 0 8 -4 11 -10z m2 -27 c-4 -3 -1 -13 5 -22 10 -13 10 -14 -1 -4 -7 6 -21 9
-29 5 -15 -5 -15 -4 -2 11 8 9 19 16 24 17 5 0 6 -3 3 -7z m-59 -17 c-7 -8
-15 -12 -17 -11 -5 6 10 25 20 25 5 0 4 -6 -3 -14z m-18 -34 c0 -4 -5 -13 -11
-19 -13 -13 -5 -43 10 -43 5 0 7 8 4 19 -6 23 8 33 27 21 13 -8 11 -13 -7 -32
-21 -21 -24 -21 -39 -6 -11 11 -14 23 -9 35 5 10 7 21 7 26 -1 4 3 7 8 7 6 0
10 -4 10 -8z m-20 -82 c0 -5 -4 -10 -10 -10 -5 0 -10 5 -10 10 0 6 5 10 10 10
6 0 10 -4 10 -10z m18 -24 c-7 -8 -15 -12 -17 -11 -5 6 10 25 20 25 5 0 4 -6
-3 -14z m-35 -11 c-3 -9 -8 -14 -10 -11 -3 3 -2 9 2 15 9 16 15 13 8 -4z m8
-34 c-7 -5 -12 -12 -11 -17 1 -5 -4 -10 -12 -12 -9 -2 -8 0 2 7 13 9 13 11 1
11 -11 0 -9 4 5 14 10 8 21 12 24 10 2 -3 -1 -9 -9 -13z m-1 -51 c-18 -12 -30
-13 -30 -2 0 4 10 9 22 9 18 2 20 0 8 -7z m-30 -71 c0 -6 -4 -7 -10 -4 -5 3
-10 11 -10 16 0 6 5 7 10 4 6 -3 10 -11 10 -16z m73 -13 c7 -18 -11 -36 -30
-29 -7 3 -13 2 -11 -3 2 -5 -8 -20 -21 -33 -23 -23 -24 -25 -5 -32 14 -6 15
-8 3 -8 -25 -1 -30 11 -14 35 11 17 12 24 2 28 -6 3 -2 3 11 0 13 -3 21 -1 20
5 -2 5 6 17 17 26 17 14 17 16 3 11 -10 -3 -18 -1 -18 4 0 15 37 12 43 -4z
m-73 -18 c0 -6 -6 -5 -15 2 -8 7 -15 14 -15 16 0 2 7 1 15 -2 8 -4 15 -11 15
-16z m-20 -38 c0 -5 -4 -10 -10 -10 -5 0 -10 5 -10 10 0 6 5 10 10 10 6 0 10
-4 10 -10z m-16 -35 c-4 -8 -11 -15 -16 -15 -6 0 -5 6 2 15 7 8 14 15 16 15 2
0 1 -7 -2 -15z m36 -32 c0 -3 -7 -3 -15 1 -8 3 -15 2 -15 -3 0 -5 7 -14 15
-21 10 -9 15 -9 15 -1 0 6 5 11 12 11 9 0 9 -3 0 -12 -9 -9 -7 -15 6 -25 15
-12 14 -12 -9 -2 -28 12 -53 45 -44 59 5 9 35 3 35 -7z m-39 -30 c13 -17 13
-17 -6 -3 -11 8 -22 16 -24 17 -2 2 0 3 6 3 6 0 17 -8 24 -17z m-11 -27 c-1
-5 4 -12 10 -16 7 -4 1 -7 -14 -7 -14 0 -26 4 -26 9 0 5 4 7 9 3 5 -3 12 -1
15 4 4 5 -2 12 -11 15 -17 4 -17 5 0 3 10 -1 17 -6 17 -11z m-39 -59 c-10 -9
-11 -8 -5 6 3 10 9 15 12 12 3 -3 0 -11 -7 -18z m36 -9 c-3 -7 -5 -2 -5 12 0
14 2 19 5 13 2 -7 2 -19 0 -25z m-24 -15 c-5 -12 -3 -14 8 -8 8 5 5 -1 -5 -13
-11 -12 -26 -22 -35 -21 -12 0 -11 3 4 9 11 5 16 9 12 9 -4 1 -3 10 3 21 13
24 22 27 13 3z m37 -33 c0 -5 5 -9 11 -7 20 4 21 -21 2 -31 -13 -6 -23 -4 -35
10 -20 20 -10 26 10 6 9 -9 15 -9 25 1 7 8 7 11 1 8 -7 -4 -17 0 -24 8 -9 10
-9 15 -1 15 6 0 11 -4 11 -10z m-67 -37 c-3 -7 -6 -13 -8 -13 -2 0 -5 6 -8 13
-3 8 1 14 8 14 7 0 11 -6 8 -14z m9 -30 c-6 -2 -9 -10 -6 -15 4 -7 2 -8 -4 -4
-18 11 -14 26 6 25 10 0 12 -3 4 -6z m-23 -26 c-2 -1 -13 -9 -24 -17 -19 -14
-19 -14 -6 3 7 9 18 17 24 17 6 0 8 -1 6 -3z m25 -32 c10 -8 23 -12 29 -8 6 3
7 1 3 -6 -4 -6 -12 -9 -17 -5 -5 3 -16 1 -24 -6 -11 -9 -16 -7 -24 8 -17 32 1
41 33 17z m-44 -40 c0 -5 -5 -3 -10 5 -5 8 -10 20 -10 25 0 6 5 3 10 -5 5 -8
10 -19 10 -25z m-17 -9 c3 -8 0 -17 -7 -19 -10 -4 -12 1 -9 14 6 23 9 24 16 5z
m58 -12 c18 -22 20 -58 3 -43 -7 6 -17 8 -23 5 -5 -3 -20 -1 -33 4 -21 10 -20
10 6 5 26 -6 28 -4 17 9 -9 11 -10 16 -2 16 6 0 11 -4 11 -10 0 -5 8 -10 18
-10 14 1 13 4 -7 20 -13 11 -19 20 -13 20 5 0 15 -7 23 -16z m-90 -47 c-10 -9
-11 -8 -5 6 3 10 9 15 12 12 3 -3 0 -11 -7 -18z m-11 -77 c-12 -23 -16 -24
-26 -8 -4 6 -3 8 3 5 6 -4 13 0 17 8 3 8 8 15 11 15 3 0 1 -9 -5 -20z m11 -23
c-10 -9 -11 -8 -5 6 3 10 9 15 12 12 3 -3 0 -11 -7 -18z m-45 -38 c-1 -12 6
-24 14 -27 13 -5 13 -3 0 14 -9 12 -9 15 -1 7 7 -6 20 -9 27 -6 8 3 14 -1 14
-8 0 -7 -3 -9 -7 -6 -3 4 -12 2 -20 -4 -9 -8 -17 -8 -26 0 -8 6 -18 7 -22 3
-5 -4 -6 -2 -3 3 3 6 8 18 11 28 9 23 14 22 13 -4z m-23 -57 c-10 -10 -20 -17
-22 -16 -6 5 20 34 30 34 5 0 1 -8 -8 -18z m62 8 c-3 -5 -12 -10 -18 -10 -7 0
-6 4 3 10 19 12 23 12 15 0z m-68 -66 c-3 -3 -12 -4 -19 -1 -8 3 -5 6 6 6 11
1 17 -2 13 -5z m-22 -22 c-3 -3 -11 0 -18 7 -9 10 -8 11 6 5 10 -3 15 -9 12
-12z m-7 -33 c7 -12 11 -23 8 -26 -3 -3 -8 2 -12 11 -3 9 -9 14 -13 11 -4 -2
-8 2 -8 10 0 21 10 19 25 -6z m47 11 c4 -6 -1 -7 -11 -3 -13 5 -15 3 -9 -7 5
-9 4 -11 -3 -6 -7 4 -12 11 -12 17 0 12 27 12 35 -1z m-83 -72 c-6 -6 -12 -5
-17 3 -5 8 -4 10 3 5 8 -5 12 1 13 16 1 18 2 19 6 4 3 -10 0 -23 -5 -28z m87
-4 c-9 -12 -39 -9 -39 3 0 3 7 3 15 0 8 -4 17 -2 20 3 6 10 -8 14 -34 11 -11
-2 -11 0 0 12 11 11 16 11 31 -2 12 -11 14 -18 7 -27z m-46 -24 c-3 -3 -8 1
-10 8 -4 10 -8 10 -21 0 -14 -12 -14 -11 -2 9 13 20 15 20 26 5 7 -9 10 -19 7
-22z m-53 -1 c0 -5 -8 -9 -17 -8 -11 0 -13 3 -5 6 6 2 9 10 6 15 -4 7 -2 8 4
4 7 -4 12 -11 12 -17z m-20 -69 c0 -5 -4 -10 -10 -10 -5 0 -10 5 -10 10 0 6 5
10 10 10 6 0 10 -4 10 -10z m-17 -68 c-11 -8 -20 -9 -27 -2 -16 16 -16 39 0
33 10 -4 13 0 8 13 -4 14 0 12 15 -6 19 -23 19 -26 4 -38z m-43 -12 c0 -5 -5
-10 -11 -10 -5 0 -7 5 -4 10 3 6 8 10 11 10 2 0 4 -4 4 -10z m-16 -36 c3 -8 2
-12 -4 -9 -6 3 -10 10 -10 16 0 14 7 11 14 -7z m12 -60 c0 -12 -5 -20 -9 -17
-5 3 -6 11 -3 19 3 8 -1 17 -9 20 -8 4 -15 10 -15 15 0 5 8 4 19 -3 10 -6 18
-21 17 -34z m57 21 c-3 -9 -8 -14 -10 -11 -3 3 -2 9 2 15 9 16 15 13 8 -4z
m-83 -10 c0 -2 -6 -5 -13 -8 -8 -3 -14 1 -14 8 0 7 6 11 14 8 7 -3 13 -6 13
-8z m50 -15 c0 -5 -2 -10 -4 -10 -3 0 -8 5 -11 10 -3 6 -1 10 4 10 6 0 11 -4
11 -10z m-84 -27 c-5 -11 -2 -13 9 -9 9 3 14 2 10 -3 -3 -5 1 -12 7 -14 8 -4
9 -6 2 -6 -7 -1 -22 8 -35 20 -13 11 -18 17 -10 13 11 -5 13 -3 8 10 -4 11 -3
15 4 11 6 -4 8 -14 5 -22z m-24 -45 c-7 -7 -12 -8 -12 -2 0 14 12 26 19 19 2
-3 -1 -11 -7 -17z m33 -8 c-3 -5 -11 -10 -16 -10 -6 0 -7 5 -4 10 3 6 11 10
16 10 6 0 7 -4 4 -10z m-46 -13 c-2 -1 -13 -9 -24 -17 -19 -14 -19 -14 -6 3 7
9 18 17 24 17 6 0 8 -1 6 -3z m11 -27 c-24 -15 -37 -11 -16 5 11 8 22 12 25 9
3 -3 -1 -9 -9 -14z m-50 -30 c-6 -11 -13 -20 -16 -20 -2 0 0 9 6 20 6 11 13
20 16 20 2 0 0 -9 -6 -20z m60 0 c8 -5 11 -10 5 -10 -5 0 -17 5 -25 10 -8 5
-10 10 -5 10 6 0 17 -5 25 -10z m-43 -31 c0 -21 -3 -26 -9 -16 -4 9 -5 22 -2
31 9 23 11 20 11 -15z m77 6 c-4 -8 -8 -15 -10 -15 -2 0 -4 7 -4 15 0 8 4 15
10 15 5 0 7 -7 4 -15z m-49 -5 c-3 -5 -2 -10 4 -10 5 0 12 5 14 10 3 6 4 5 3
-2 -3 -17 -28 -17 -33 0 -3 6 0 12 7 12 6 0 8 -4 5 -10z m-65 -24 c0 -3 -4 -8
-10 -11 -5 -3 -10 -1 -10 4 0 6 5 11 10 11 6 0 10 -2 10 -4z m26 -33 c-3 -4
-6 -1 -6 6 0 7 -4 9 -10 6 -6 -4 -7 1 -3 11 6 15 7 15 15 -1 6 -9 7 -19 4 -22z
m-6 -17 c0 -2 -9 -2 -20 1 -11 3 -20 9 -20 15 0 5 9 4 20 -2 11 -6 20 -12 20
-14z m-46 -2 c3 -8 2 -13 -3 -9 -5 3 -11 0 -13 -7 -3 -7 -7 -5 -11 6 -4 10 -3
15 3 11 6 -3 10 -1 10 4 0 16 7 13 14 -5z m-37 -28 c-3 -8 5 -18 20 -25 14 -7
23 -14 20 -17 -10 -11 -56 27 -50 42 3 8 7 14 10 14 3 0 3 -6 0 -14z m-17 -36
c0 -5 -5 -10 -11 -10 -5 0 -7 5 -4 10 3 6 8 10 11 10 2 0 4 -4 4 -10z m37 -44
c1 -21 -2 -26 -15 -24 -9 2 -17 10 -17 18 0 8 6 14 13 13 14 -3 16 13 2 20 -6
3 -5 4 2 3 7 -1 14 -15 15 -30z m-44 7 c-3 -7 -6 -13 -8 -13 -2 0 -5 6 -8 13
-3 8 1 14 8 14 7 0 11 -6 8 -14z m-45 -58 c-3 -3 -9 2 -12 12 -6 14 -5 15 5 6
7 -7 10 -15 7 -18z m32 -26 c0 -6 -4 -7 -10 -4 -5 3 -10 11 -10 16 0 6 5 7 10
4 6 -3 10 -11 10 -16z m1 -26 c11 1 18 6 15 12 -2 7 2 12 9 12 10 0 11 -5 4
-19 -6 -10 -14 -16 -20 -13 -5 4 -9 1 -9 -4 0 -6 5 -11 12 -11 6 0 3 -7 -8
-15 -10 -8 -15 -15 -11 -15 10 0 -18 -30 -29 -30 -3 0 -1 6 5 14 8 10 9 16 1
21 -13 8 -13 25 1 25 5 0 7 -4 4 -10 -3 -5 -2 -10 3 -10 20 0 20 14 2 38 -11
13 -20 30 -19 36 0 6 5 1 11 -11 6 -12 19 -21 29 -20z m-47 -15 c-4 -6 -15 -7
-26 -5 -12 4 -18 1 -15 -6 3 -7 9 -11 15 -10 5 1 16 -4 22 -12 9 -11 9 -15 1
-15 -6 0 -11 5 -11 12 0 6 -3 8 -7 5 -3 -4 -12 -2 -20 4 -10 9 -13 8 -13 -1 0
-8 -3 -11 -6 -8 -3 4 -1 15 5 26 7 14 17 18 31 15 16 -4 19 -2 14 11 -3 9 -11
13 -17 9 -6 -4 -7 -1 -2 7 6 10 11 9 21 -5 7 -10 11 -22 8 -27z m-34 -58 c0
-5 -4 -10 -10 -10 -5 0 -10 5 -10 10 0 6 5 10 10 10 6 0 10 -4 10 -10z m-56
-35 c-10 -8 -23 -14 -29 -14 -5 -1 1 8 15 19 14 10 27 17 29 14 3 -2 -4 -11
-15 -19z m-31 -32 c-7 -2 -13 -12 -13 -20 0 -9 -3 -14 -6 -10 -10 10 4 37 18
36 10 0 10 -2 1 -6z m27 -23 c0 -5 -4 -10 -10 -10 -5 0 -10 5 -10 10 0 6 5 10
10 10 6 0 10 -4 10 -10z m-60 -34 c-7 -7 -15 -5 -22 3 -11 10 -10 11 5 5 14
-5 16 -2 11 12 -5 16 -4 16 5 4 6 -9 7 -18 1 -24z m-22 -31 c-3 -3 -9 2 -12
12 -6 14 -5 15 5 6 7 -7 10 -15 7 -18z m55 18 c4 -3 1 -13 -6 -21 -10 -13 -8
-14 13 -9 14 4 19 4 13 1 -7 -3 -13 -10 -13 -15 0 -6 5 -7 10 -4 19 12 10 -2
-17 -26 -16 -13 -25 -20 -21 -15 4 5 3 15 -3 23 -9 9 -8 13 0 13 6 0 11 -5 11
-11 0 -5 5 -7 11 -3 7 4 6 11 -5 22 -12 13 -18 13 -30 2 -11 -8 -16 -9 -16 -1
0 6 4 11 9 11 5 0 11 9 14 20 5 20 18 26 30 13z m-80 -30 c-5 -12 -3 -14 7 -8
9 6 11 4 5 -4 -5 -9 -11 -9 -17 -3 -6 6 -7 15 -4 21 11 17 16 13 9 -6z m-12
-30 c13 -16 12 -17 -3 -4 -10 7 -18 15 -18 17 0 8 8 3 21 -13z m39 -13 c0 -5
-4 -10 -10 -10 -5 0 -10 5 -10 10 0 6 5 10 10 10 6 0 10 -4 10 -10z m-26 -32
c-3 -4 -1 -8 5 -8 5 0 12 6 14 13 4 9 6 9 6 0 2 -19 -21 -27 -33 -11 -14 19
-37 12 -29 -10 5 -14 4 -15 -8 -4 -12 11 -11 15 3 26 10 7 14 16 10 21 -4 4 3
2 15 -6 12 -7 19 -17 17 -21z m-83 -21 c-10 -9 -11 -8 -5 6 3 10 9 15 12 12 3
-3 0 -11 -7 -18z m46 -33 c-15 -13 -33 -24 -40 -24 -7 1 -2 6 11 13 25 14 20
29 -6 20 -14 -5 -15 -3 -5 7 10 11 15 11 27 0 13 -10 17 -9 22 4 4 9 9 14 13
11 3 -4 -7 -18 -22 -31z m-57 -4 c0 -5 -4 -10 -10 -10 -5 0 -10 5 -10 10 0 6
5 10 10 10 6 0 10 -4 10 -10z m-38 -47 c-6 -2 -10 -9 -7 -14 4 -5 -1 -6 -10
-3 -10 4 -15 2 -13 -7 2 -7 -6 -14 -17 -16 l-20 -3 20 9 c11 5 16 10 10 11
-13 1 26 30 39 29 6 0 5 -3 -2 -6z m-32 -67 c0 -2 -7 -6 -15 -10 -8 -3 -15 -1
-15 4 0 6 7 10 15 10 8 0 15 -2 15 -4z m-44 -41 c-7 -20 -22 -19 -30 1 -5 14
-4 15 9 4 13 -11 15 -9 16 11 0 13 3 18 6 11 3 -7 2 -19 -1 -27z m71 -23 c-7
-8 -13 -9 -22 -2 -7 6 -19 9 -26 7 -8 -2 -11 -2 -6 0 4 3 4 10 0 16 -4 7 5 4
19 -5 17 -11 29 -14 33 -8 3 6 1 10 -4 10 -6 0 -11 10 -11 23 0 22 1 22 14 -3
8 -17 9 -29 3 -38z m-128 -35 c0 -9 -2 -8 -6 1 -2 6 -10 9 -15 6 -7 -4 -8 -2
-4 5 9 13 26 5 25 -12z m22 -16 c-12 -22 -31 -28 -31 -10 0 5 5 7 10 4 10 -6
14 7 10 35 -1 11 1 12 10 4 9 -9 9 -17 1 -33z m79 29 c0 -5 0 -12 0 -15 0 -14
-13 -8 -16 8 -1 9 2 17 7 17 5 0 9 -4 9 -10z m-123 -26 c-3 -3 -12 -4 -19 -1
-8 3 -5 6 6 6 11 1 17 -2 13 -5z m3 -36 c0 -5 6 -6 13 -2 7 5 7 1 -2 -10 -8
-10 -23 -15 -33 -13 -10 3 -18 1 -18 -5 0 -5 9 -12 20 -15 11 -3 20 -10 20
-15 0 -6 -10 -4 -22 5 -31 20 -30 43 2 39 24 -3 25 -2 5 13 -19 15 -21 14 -37
-6 -10 -12 -18 -18 -18 -13 0 4 7 15 16 25 15 17 54 15 54 -3z m-52 -63 c-3
-3 -9 2 -12 12 -6 14 -5 15 5 6 7 -7 10 -15 7 -18z m-38 -26 c0 -5 -4 -7 -10
-4 -5 3 -10 1 -10 -4 0 -6 -5 -11 -11 -11 -8 0 -8 5 1 15 14 17 30 20 30 4z
m-57 -26 c-7 -2 -13 -9 -13 -14 0 -6 3 -8 8 -5 4 2 16 -2 27 -10 10 -8 15 -14
9 -14 -5 0 -2 -5 6 -10 10 -7 11 -10 2 -10 -7 0 -15 7 -18 15 -4 8 -10 13 -14
10 -11 -7 -33 22 -25 35 3 5 12 10 18 9 9 0 9 -2 0 -6z m-57 -51 c-17 -16 -18
-16 -5 5 7 12 15 20 18 17 3 -2 -3 -12 -13 -22z m25 -9 c-12 -20 -14 -14 -5
12 4 9 9 14 11 11 3 -2 0 -13 -6 -23z m46 -23 c-1 -10 -5 -16 -9 -14 -5 3 -6
9 -3 14 3 5 1 11 -5 15 -5 3 -10 -1 -10 -9 0 -9 -5 -16 -10 -16 -7 0 -7 6 0
20 12 23 39 16 37 -10z m-103 5 c-4 -8 -11 -15 -16 -15 -6 0 -5 6 2 15 7 8 14
15 16 15 2 0 1 -7 -2 -15z m24 -15 c-7 -10 -14 -18 -15 -16 -6 6 9 36 18 36 5
0 4 -9 -3 -20z m14 -23 c-19 -22 -2 -27 19 -6 22 22 57 16 38 -7 -8 -10 -15
-11 -24 -4 -9 8 -14 6 -19 -6 -5 -13 -9 -14 -21 -4 -11 9 -12 17 -4 32 6 11
13 17 16 14 3 -3 1 -12 -5 -19z m-54 4 c11 -7 10 -9 -3 -14 -9 -4 -14 -3 -10
2 3 5 -1 12 -7 14 -7 3 -8 6 -3 6 6 0 16 -3 23 -8z m-23 -31 c8 -13 -5 -13
-25 0 -13 8 -13 10 2 10 9 0 20 -4 23 -10z m40 0 c-3 -5 -11 -10 -16 -10 -6 0
-7 5 -4 10 3 6 11 10 16 10 6 0 7 -4 4 -10z m-77 -24 c-7 -8 -15 -12 -17 -11
-5 6 10 25 20 25 5 0 4 -6 -3 -14z m42 -31 c0 -2 -7 -1 -17 2 -11 4 -14 3 -9
-5 5 -8 1 -10 -10 -5 -11 4 -13 8 -6 11 7 2 9 8 6 14 -4 6 2 5 15 -1 11 -7 21
-14 21 -16z m-60 -4 c0 -3 -9 -12 -20 -19 -12 -7 -20 -8 -20 -2 0 5 5 10 11
10 6 0 9 7 6 14 -4 10 -1 13 9 9 7 -3 14 -8 14 -12z m-53 -42 c-3 -12 2 -24
14 -33 18 -12 19 -14 3 -20 -10 -4 -24 0 -32 8 -13 12 -13 18 -3 30 7 9 11 23
7 31 -3 10 -2 14 5 9 6 -3 9 -15 6 -25z m58 -3 c-10 -14 -21 -26 -26 -26 -16
0 -18 18 -4 30 8 7 15 9 15 4 0 -5 5 -1 11 9 6 10 13 16 16 14 2 -3 -3 -17
-12 -31z m-94 -14 c-7 -13 -7 -22 1 -30 9 -9 9 -15 -1 -24 -10 -11 -11 -9 -5
7 7 18 6 18 -9 6 -11 -9 -17 -10 -17 -2 0 6 5 11 10 11 6 0 9 3 8 8 -3 11 13
54 19 49 2 -3 0 -14 -6 -25z m-44 -64 c-3 -8 -6 -5 -6 6 -1 11 2 17 5 13 3 -3
4 -12 1 -19z m-22 -13 c5 0 11 -9 12 -20 l3 -20 -9 20 c-5 11 -10 16 -10 11
-1 -5 -7 -3 -14 3 -8 6 -18 7 -22 3 -5 -4 -5 -1 -1 6 4 7 13 9 19 5 7 -4 16
-8 22 -8z m-15 -25 c8 -5 12 -11 10 -14 -3 -2 -14 2 -24 10 -22 15 -10 19 14
4z m-74 -26 c-4 -10 -2 -14 6 -11 7 2 12 9 11 14 -1 6 7 10 18 9 10 0 18 -5
17 -11 -4 -19 -33 -65 -42 -65 -4 0 4 16 18 35 28 37 25 47 -5 19 -20 -18 -41
-11 -32 11 3 8 7 15 10 15 3 0 2 -7 -1 -16z m-16 -35 c0 -5 4 -7 10 -4 6 3 7
-1 4 -10 -4 -9 -7 -15 -8 -13 -1 2 -8 11 -15 21 -9 11 -10 17 -2 17 6 0 11 -5
11 -11z m-24 -18 c-4 -5 -1 -11 6 -13 7 -3 5 -7 -6 -11 -10 -4 -15 -3 -11 3 3
6 0 10 -7 10 -9 0 -9 3 2 10 19 12 23 12 16 1z m-23 -31 c9 -11 13 -20 7 -20
-5 0 -14 9 -20 20 -6 11 -9 20 -8 20 2 0 11 -9 21 -20z m-13 -35 c0 -5 -5 -3
-10 5 -5 8 -10 20 -10 25 0 6 5 3 10 -5 5 -8 10 -19 10 -25z m-40 10 c0 5 5 4
11 -2 14 -14 -9 -53 -27 -46 -9 3 -12 -2 -9 -16 4 -24 -10 -29 -18 -7 -6 15 6
29 36 39 19 7 24 29 6 25 -6 -2 -14 4 -16 12 -4 13 -3 13 6 0 6 -8 11 -11 11
-5z m-43 -30 c-15 -6 -24 -15 -20 -20 5 -4 2 -5 -5 -1 -15 9 -6 26 14 26 8 0
12 4 9 10 -4 6 1 7 12 3 15 -6 13 -8 -10 -18z m132 16 c10 -7 9 -11 -8 -23
-11 -8 -18 -18 -13 -23 4 -5 2 -5 -4 -2 -7 4 -17 0 -24 -8 -7 -8 -16 -12 -21
-9 -5 3 -9 1 -9 -5 0 -6 -9 -15 -20 -21 -14 -7 -20 -7 -20 0 0 5 7 10 16 10
10 0 14 5 10 16 -3 8 -2 12 3 9 5 -3 12 4 16 15 7 21 25 28 25 9 0 -5 5 -7 10
-4 6 4 8 11 5 16 -7 10 2 29 13 29 4 0 13 -4 21 -9z m-129 -95 c0 -12 -5 -7
-19 24 -11 24 -11 24 3 6 9 -11 16 -24 16 -30z m-94 -3 c18 -24 17 -33 -3 -32
-12 0 -13 2 -5 6 10 4 9 9 -4 24 -9 10 -14 19 -9 19 4 0 14 -8 21 -17z m29 -1
c-3 -3 -11 0 -18 7 -9 10 -8 11 6 5 10 -3 15 -9 12 -12z m-57 -17 c-3 -3 -9 2
-12 12 -6 14 -5 15 5 6 7 -7 10 -15 7 -18z m-41 -10 c0 -8 -4 -15 -9 -15 -10
0 -11 14 -1 23 9 10 10 9 10 -8z m-41 -57 c4 -7 3 -8 -4 -4 -7 4 -12 2 -12 -3
0 -6 -5 -11 -11 -11 -8 0 -8 5 1 15 15 18 17 18 26 3z m-41 -29 c11 -16 1 -19
-13 -3 -7 8 -8 14 -3 14 5 0 13 -5 16 -11z m-15 -21 c0 -6 -8 -4 -17 3 -14 12
-16 12 -11 -2 3 -9 2 -22 -3 -30 -7 -11 -9 -11 -9 -1 0 7 -5 10 -11 6 -6 -3
-4 5 6 19 16 25 45 27 45 5z m-68 -8 c-12 -11 -25 -20 -29 -20 -9 1 36 40 45
40 3 0 -4 -9 -16 -20z m54 -36 c-4 -9 -1 -24 6 -33 12 -15 11 -15 -7 0 -11 9
-27 15 -35 13 -8 -3 -5 1 8 7 12 7 22 16 22 21 0 4 3 8 6 8 3 0 3 -7 0 -16z
m-125 -17 c-10 -9 -11 -8 -5 6 3 10 9 15 12 12 3 -3 0 -11 -7 -18z m89 19 c0
-2 -7 -6 -15 -10 -8 -3 -15 -1 -15 4 0 6 7 10 15 10 8 0 15 -2 15 -4z m-106
-32 c3 -8 2 -12 -4 -9 -6 3 -10 10 -10 16 0 14 7 11 14 -7z m-44 -23 c0 -7
-22 -20 -40 -23 -3 -1 -10 -8 -17 -17 -7 -9 -13 -11 -13 -6 0 6 -5 3 -11 -5
-7 -10 -9 -11 -7 -2 2 8 7 13 12 12 5 -1 13 5 18 14 5 9 13 14 19 11 5 -4 12
1 15 9 7 17 24 22 24 7z m-130 -92 c-6 -10 -13 -19 -16 -19 -2 0 0 8 5 19 6
10 7 22 3 26 -4 5 -1 5 6 1 9 -5 9 -12 2 -27z m-31 -89 c8 -13 4 -16 -15 -16
-16 0 -21 3 -14 10 6 6 10 15 10 20 0 6 -5 5 -12 -2 -7 -7 -17 -12 -22 -12 -6
0 -3 5 6 11 17 9 17 12 2 37 -16 26 -15 25 10 -3 14 -16 30 -37 35 -45z m-85
48 c-5 -8 -2 -9 10 -5 10 4 15 3 11 -3 -3 -6 -1 -10 6 -10 7 0 10 -3 7 -6 -10
-9 -49 16 -43 27 4 5 8 9 11 9 3 0 2 -5 -2 -12z m-44 -38 c-6 -11 -12 -20 -14
-20 -2 0 -2 9 1 20 3 11 9 20 15 20 5 0 4 -9 -2 -20z m21 -3 c-10 -9 -11 -8
-5 6 3 10 9 15 12 12 3 -3 0 -11 -7 -18z m34 -7 c-3 -5 -11 -10 -16 -10 -6 0
-7 5 -4 10 3 6 11 10 16 10 6 0 7 -4 4 -10z m-85 -10 c0 -5 -2 -10 -4 -10 -3
0 -8 5 -11 10 -3 6 -1 10 4 10 6 0 11 -4 11 -10z m-30 -13 c0 -5 -6 -7 -14 -4
-7 3 -24 -1 -37 -10 l-24 -15 22 20 c22 20 53 25 53 9z m70 3 c-8 -5 -19 -10
-25 -10 -5 0 -3 5 5 10 8 5 20 10 25 10 6 0 3 -5 -5 -10z m46 -26 c1 -9 0 -13
-4 -10 -3 4 -7 14 -8 22 -1 9 0 13 4 10 3 -4 7 -14 8 -22z m-76 6 c13 -8 13
-10 -2 -10 -9 0 -20 5 -23 10 -8 13 5 13 25 0z m-56 -15 c3 -8 1 -15 -4 -15
-6 0 -10 7 -10 15 0 8 2 15 4 15 2 0 6 -7 10 -15z m52 -13 c5 2 10 -1 12 -6 6
-21 -24 -12 -42 13 l-20 26 21 -18 c11 -10 24 -17 29 -15z m-153 -4 c-11 -18
-10 -32 1 -40 6 -4 7 -10 3 -14 -8 -9 -18 -1 -21 18 -1 7 -6 19 -10 27 -6 9
-5 12 2 7 6 -3 13 -2 17 4 3 5 8 10 11 10 3 0 2 -6 -3 -12z m-45 -41 c15 4 15
3 2 -6 -13 -9 -12 -11 5 -12 11 0 14 -3 7 -6 -15 -6 -42 14 -41 31 0 7 2 7 5
-1 3 -7 13 -9 22 -6z m-29 -37 c0 -10 -3 -8 -9 5 -12 27 -12 43 0 25 5 -8 9
-22 9 -30z m-65 5 c-4 -8 -8 -15 -10 -15 -2 0 -4 7 -4 15 0 8 4 15 10 15 5 0
7 -7 4 -15z m-14 -42 c0 -7 -5 -13 -11 -13 -5 0 -7 -6 -4 -12 4 -7 -2 -3 -13
9 -11 12 -23 19 -27 15 -5 -4 -5 -1 -1 6 10 18 26 15 26 -5 0 -13 3 -14 12 -5
9 9 9 15 0 24 -7 7 -12 16 -12 22 0 14 29 -27 30 -41z m51 24 c-12 -16 -5 -27
18 -27 14 0 14 2 1 10 -9 6 -10 10 -3 10 23 0 22 -18 -2 -34 -21 -14 -24 -14
-19 -1 4 10 -2 18 -17 24 -18 7 -19 10 -6 10 9 1 17 6 17 11 0 6 5 10 11 10 8
0 9 -4 0 -13z m-111 -48 c0 -5 -11 -14 -24 -20 -14 -7 -23 -17 -22 -23 2 -6 1
-8 -1 -4 -2 4 -11 4 -19 1 -8 -3 -14 0 -14 6 0 6 3 10 8 9 14 -3 42 14 36 23
-3 5 2 6 11 3 11 -5 14 -2 8 12 -4 12 -3 15 5 10 7 -4 12 -12 12 -17z m-58 4
c-6 -3 -10 -8 -7 -13 6 -10 -43 -6 -53 5 -4 4 4 4 17 0 13 -4 21 -3 18 2 -3 5
4 9 16 10 12 0 16 -1 9 -4z m89 -20 c8 -9 9 -14 3 -10 -7 4 -15 0 -18 -9 -3
-8 -10 -12 -16 -9 -5 3 -10 1 -10 -5 0 -6 -5 -8 -11 -4 -7 4 -1 13 15 23 14
10 23 21 19 24 -3 4 -4 7 -1 7 3 0 12 -8 19 -17z m-181 -8 c-6 -8 -9 -19 -5
-25 3 -5 1 -10 -4 -10 -15 0 -14 23 1 38 17 17 23 15 8 -3z m-3956 -46 c-3 -5
-10 -7 -15 -3 -5 3 -7 10 -3 15 3 5 10 7 15 3 5 -3 7 -10 3 -15z m3838 4 c-6
-2 -9 -10 -6 -15 4 -7 2 -8 -5 -4 -13 9 -5 26 12 25 9 0 8 -2 -1 -6z m208 -1
c0 -13 -12 -22 -22 -16 -10 6 -1 24 13 24 5 0 9 -4 9 -8z m-317 -58 c-26 -20
-36 -17 -15 4 9 11 21 17 25 14 5 -2 0 -10 -10 -18z m-3531 -8 c7 4 8 2 4 -5
-9 -13 -26 -5 -25 12 0 9 2 8 6 -1 2 -6 10 -9 15 -6z m3483 3 c-3 -4 4 -18 16
-30 16 -18 19 -20 15 -6 -3 10 -2 16 3 12 5 -3 11 -2 14 2 2 5 2 2 0 -6 -2 -7
2 -21 9 -30 11 -14 11 -14 -4 -3 -11 9 -18 10 -23 2 -3 -6 -10 -8 -15 -5 -5 3
-13 -3 -19 -12 -8 -14 -11 -15 -12 -3 -1 8 -1 19 0 24 1 4 -4 14 -10 22 -7 8
-9 17 -6 21 4 3 12 -6 18 -20 7 -15 16 -24 21 -21 4 3 0 18 -11 33 -15 21 -17
28 -6 28 8 0 12 -4 10 -8z m-45 -39 c8 -5 12 -11 10 -14 -3 -2 -14 2 -24 10
-22 15 -10 19 14 4z m-108 -7 c-6 -2 -10 -9 -7 -14 4 -5 -1 -6 -10 -2 -13 5
-14 7 -3 14 7 5 18 8 23 8 6 0 4 -3 -3 -6z m108 -24 l25 -20 -35 17 c-43 20
-47 24 -29 24 8 0 25 -10 39 -21z m-210 -9 c0 -5 -5 -10 -11 -10 -5 0 -7 5 -4
10 3 6 8 10 11 10 2 0 4 -4 4 -10z m-60 -19 c0 -5 -6 -11 -12 -14 -10 -3 -10
-7 1 -20 7 -10 18 -17 23 -17 6 0 5 6 -1 14 -10 12 -8 17 8 26 14 7 21 7 21 0
0 -5 -7 -10 -16 -10 -8 0 -12 -5 -9 -10 4 -6 12 -7 18 -3 7 3 4 -3 -6 -14
l-18 -21 -22 22 c-18 16 -20 25 -12 39 11 18 25 23 25 8z m-50 -15 c-7 -7 -13
-7 -20 0 -6 6 -3 10 10 10 13 0 16 -4 10 -10z m-41 -19 c0 -9 -2 -8 -6 1 -2 6
-10 9 -15 6 -7 -4 -8 -2 -4 5 9 13 26 5 25 -12z m-54 -9 c3 -3 -2 -11 -12 -19
-11 -9 -14 -10 -9 -1 4 6 2 12 -3 12 -6 0 -11 4 -11 9 0 10 25 9 35 -1z m85 1
c0 -5 4 -8 9 -5 4 3 17 -2 27 -10 10 -9 13 -12 6 -9 -7 4 -22 -1 -32 -10 -25
-23 -52 -25 -72 -7 -18 15 -24 8 -19 -20 0 -5 -3 -8 -9 -8 -15 0 -12 26 4 39
11 9 17 8 29 -4 9 -8 18 -11 22 -6 3 5 -5 17 -17 25 -12 9 -17 16 -11 16 7 0
15 -5 18 -10 4 -6 10 -8 15 -5 5 3 11 1 15 -5 3 -5 11 -10 17 -10 6 0 3 9 -7
20 -10 11 -13 20 -7 20 7 0 12 -5 12 -11z m-120 -34 c0 -5 -5 -3 -10 5 -5 8
-10 20 -10 25 0 6 5 3 10 -5 5 -8 10 -19 10 -25z m-93 3 c-3 -8 -6 -5 -6 6 -1
11 2 17 5 13 3 -3 4 -12 1 -19z m-2307 -7 c0 -4 -6 -8 -14 -8 -8 0 -12 6 -9
14 5 13 23 9 23 -6z m2262 12 c-6 -2 -9 -10 -6 -15 4 -7 2 -8 -5 -4 -13 9 -5
26 12 25 9 0 8 -2 -1 -6z m113 -3 c3 -5 1 -10 -4 -10 -6 0 -11 5 -11 10 0 6 2
10 4 10 3 0 8 -4 11 -10z m-155 -4 c0 -3 -4 -8 -10 -11 -5 -3 -10 -1 -10 4 0
6 5 11 10 11 6 0 10 -2 10 -4z m-30 -21 c7 -8 9 -15 6 -15 -4 0 -14 7 -22 15
-9 8 -11 15 -6 15 5 0 15 -7 22 -15z m-70 -8 c0 -5 6 -4 14 2 11 9 16 9 22 0
4 -8 3 -9 -4 -5 -7 4 -12 2 -12 -3 0 -15 -12 -14 -34 2 -16 12 -16 14 -2 14 9
0 16 -5 16 -10z m120 3 c0 -5 -4 -10 -10 -10 -5 0 -10 5 -10 10 0 6 5 10 10
10 6 0 10 -4 10 -10z m161 -13 c-10 -9 -11 -8 -5 6 3 10 9 15 12 12 3 -3 0
-11 -7 -18z m-420 -20 c-10 -9 -11 -8 -5 6 3 10 9 15 12 12 3 -3 0 -11 -7 -18z
m274 13 c-3 -5 -2 -10 3 -10 5 0 9 -6 9 -14 0 -13 -5 -13 -30 1 -25 12 -31 13
-38 1 -5 -7 -9 -9 -9 -4 0 5 -8 2 -18 -7 -10 -10 -22 -14 -26 -10 -4 5 -13 8
-18 8 -6 0 -13 7 -15 15 -4 12 -2 12 5 2 7 -10 11 -10 21 2 9 11 26 14 57 11
24 -2 46 1 49 6 4 5 8 9 11 9 3 0 2 -4 -1 -10z m-309 -35 c-9 -13 -11 -26 -6
-31 5 -5 -5 -9 -25 -10 -26 -1 -33 3 -32 17 1 13 5 15 18 9 18 -10 39 5 39 30
-1 12 -2 12 -11 -2 -5 -10 -15 -18 -22 -18 -7 0 -6 4 3 10 8 5 11 10 5 10 -5
0 -4 4 4 9 8 5 20 7 28 4 12 -5 11 -9 -1 -28z m-1509 10 c4 -4 2 -5 -6 0 -9 5
-12 3 -9 -6 3 -8 12 -13 22 -11 9 2 16 -4 16 -13 0 -19 -14 -19 -30 0 -7 8
-16 12 -21 10 -4 -3 -7 3 -6 14 1 19 20 22 34 6z m1448 5 c3 -5 1 -10 -4 -10
-6 0 -11 5 -11 10 0 6 2 10 4 10 3 0 8 -4 11 -10z m-165 -20 c0 -5 -2 -10 -4
-10 -3 0 -8 5 -11 10 -3 6 -1 10 4 10 6 0 11 -4 11 -10z m-99 -33 c-5 -5 -7
-16 -4 -23 3 -8 1 -14 -5 -14 -11 0 -10 25 1 36 4 4 1 14 -6 23 -11 14 -10 14
6 2 11 -9 14 -18 8 -24z m47 8 c-3 -3 -9 2 -12 12 -6 14 -5 15 5 6 7 -7 10
-15 7 -18z m-894 0 c16 -12 17 -18 8 -27 -11 -11 -17 -6 -9 7 1 2 -7 11 -18
19 -11 9 -15 15 -10 15 6 0 19 -6 29 -14z m90 4 c-5 -8 -64 -9 -64 -1 0 4 15
7 34 7 19 0 32 -3 30 -6z m484 -17 c9 9 12 9 12 0 0 -7 -4 -12 -10 -12 -5 0
-10 -5 -10 -11 0 -5 4 -8 9 -4 5 3 12 1 15 -4 4 -5 -1 -8 -10 -7 -9 1 -25 18
-36 37 -17 29 -18 31 -1 11 15 -18 21 -20 31 -10z m32 18 c0 -5 -2 -10 -4 -10
-3 0 -8 5 -11 10 -3 6 -1 10 4 10 6 0 11 -4 11 -10z m80 -4 c-7 -7 -13 -7 -20
0 -6 6 -3 10 10 10 13 0 16 -4 10 -10z m60 0 c-4 -4 -16 -4 -26 2 -16 9 -14
10 8 9 15 -1 23 -6 18 -11z m-470 -31 c7 -8 10 -18 6 -22 -3 -3 -6 -2 -6 4 0
6 -12 18 -26 28 -26 16 -26 16 -19 -7 4 -15 3 -19 -3 -10 -7 11 -10 10 -16 -3
-6 -18 -26 -12 -26 8 0 7 4 6 10 -3 9 -13 10 -13 10 1 0 40 38 42 70 4z m17
29 c-3 -3 -12 -4 -19 -1 -8 3 -5 6 6 6 11 1 17 -2 13 -5z m31 -19 c-3 -3 -9 2
-12 12 -6 14 -5 15 5 6 7 -7 10 -15 7 -18z m47 -24 c-5 -9 -11 -9 -19 -2 -7 6
-17 7 -22 3 -4 -4 -2 1 5 10 7 9 9 23 5 30 -3 7 3 3 16 -8 12 -12 19 -27 15
-33z m101 33 c-9 -8 -13 -21 -10 -27 5 -9 3 -8 -6 0 -11 10 -11 15 0 28 7 8
17 15 22 15 5 0 2 -7 -6 -16z m-501 -3 c7 -12 -12 -24 -25 -16 -11 7 -4 25 10
25 5 0 11 -4 15 -9z m552 3 c-3 -3 -12 -4 -19 -1 -8 3 -5 6 6 6 11 1 17 -2 13
-5z m-121 -23 c0 -11 -4 -17 -8 -15 -4 3 -8 12 -8 20 0 8 4 14 8 14 4 0 8 -9
8 -19z m81 -3 c-3 -8 -6 -5 -6 6 -1 11 2 17 5 13 3 -3 4 -12 1 -19z m54 -1
c-1 -12 -15 -9 -19 4 -3 6 1 10 8 8 6 -3 11 -8 11 -12z"/>
<path d="M10240 8041 c0 -6 4 -13 10 -16 6 -3 7 1 4 9 -7 18 -14 21 -14 7z"/>
<path d="M10794 6449 c-3 -6 -2 -15 3 -20 5 -5 9 -1 9 11 0 23 -2 24 -12 9z"/>
<path d="M10825 4822 c-10 -10 -5 -20 12 -26 10 -4 14 -4 10 0 -4 4 -2 12 3
19 7 8 5 12 -5 12 -8 0 -17 -3 -20 -5z"/>
<path d="M10740 4444 c0 -8 5 -12 10 -9 6 4 8 11 5 16 -9 14 -15 11 -15 -7z"/>
<path d="M10546 3765 c4 -8 10 -12 15 -9 11 6 2 24 -11 24 -5 0 -7 -7 -4 -15z"/>
<path d="M10271 3151 c-7 -5 -9 -11 -4 -14 5 -3 15 -2 22 2 7 5 9 11 4 14 -5
3 -15 2 -22 -2z"/>
<path d="M10020 2650 c0 -5 5 -10 11 -10 5 0 7 5 4 10 -3 6 -8 10 -11 10 -2 0
-4 -4 -4 -10z"/>
<path d="M9800 2329 c0 -5 5 -7 10 -4 6 3 10 8 10 11 0 2 -4 4 -10 4 -5 0 -10
-5 -10 -11z"/>
<path d="M9060 1532 c0 -12 19 -26 26 -19 2 2 -2 10 -11 17 -9 8 -15 8 -15 2z"/>
<path d="M9105 1550 c-3 -5 -1 -10 4 -10 6 0 11 5 11 10 0 6 -2 10 -4 10 -3 0
-8 -4 -11 -10z"/>
<path d="M8830 1280 c0 -5 5 -10 10 -10 6 0 10 5 10 10 0 6 -4 10 -10 10 -5 0
-10 -4 -10 -10z"/>
<path d="M8790 1239 c0 -5 5 -7 10 -4 6 3 10 8 10 11 0 2 -4 4 -10 4 -5 0 -10
-5 -10 -11z"/>
<path d="M6763 265 c0 -8 4 -12 9 -9 5 3 6 10 3 15 -9 13 -12 11 -12 -6z"/>
<path d="M6415 201 c-10 -17 12 -21 25 -6 10 12 10 15 -3 15 -9 0 -18 -4 -22
-9z"/>
<path d="M5395 120 c3 -5 8 -10 11 -10 2 0 4 5 4 10 0 6 -5 10 -11 10 -5 0 -7
-4 -4 -10z"/>
<path d="M8990 9641 c0 -6 4 -13 10 -16 6 -3 7 1 4 9 -7 18 -14 21 -14 7z"/>
<path d="M9430 9200 c0 -5 5 -10 10 -10 6 0 10 5 10 10 0 6 -4 10 -10 10 -5 0
-10 -4 -10 -10z"/>
<path d="M9463 9171 c0 -11 5 -18 9 -15 4 3 5 11 1 19 -7 21 -12 19 -10 -4z"/>
<path d="M9497 9135 c-4 -8 -3 -16 1 -19 4 -3 9 4 9 15 2 23 -3 25 -10 4z"/>
<path d="M9571 9056 c-8 -10 -9 -16 -1 -21 5 -3 10 -5 11 -3 4 18 7 38 4 38
-1 0 -8 -6 -14 -14z"/>
<path d="M9664 8939 c-5 -8 -3 -9 6 -4 10 6 12 4 7 -8 -3 -10 -2 -17 3 -17 13
0 13 27 1 35 -5 3 -13 0 -17 -6z"/>
<path d="M9696 8901 c-3 -4 1 -17 9 -27 15 -18 15 -18 8 1 -6 18 -5 18 10 6
10 -8 19 -12 21 -10 2 2 -6 12 -19 22 -13 9 -26 13 -29 8z"/>
<path d="M9830 8715 c14 -8 30 -14 35 -14 6 0 -1 6 -15 14 -14 8 -29 14 -35
14 -5 0 1 -6 15 -14z"/>
<path d="M9900 8625 c-9 -11 -9 -15 -1 -15 7 0 10 -4 7 -9 -3 -5 1 -14 8 -20
9 -8 16 -8 20 -2 4 5 2 12 -4 16 -6 4 -7 11 -4 17 4 7 2 8 -4 4 -7 -4 -12 -3
-12 3 0 5 6 12 13 14 7 4 8 6 1 6 -6 1 -17 -6 -24 -14z"/>
<path d="M9971 8554 c0 -11 3 -14 6 -6 3 7 2 16 -1 19 -3 4 -6 -2 -5 -13z"/>
<path d="M9955 8530 c15 -17 35 -19 35 -4 0 3 -5 2 -10 -1 -6 -3 -13 1 -16 9
-3 9 -11 16 -17 16 -5 0 -2 -9 8 -20z"/>
<path d="M9988 8503 c-7 -13 -4 -27 12 -48 15 -20 15 -20 33 -2 17 17 17 18 0
15 -10 -2 -18 2 -18 9 0 16 -22 37 -27 26z m18 -21 c-3 -3 0 -12 6 -21 10 -13
10 -14 -2 -4 -16 15 -23 46 -8 37 5 -3 7 -9 4 -12z"/>
<path d="M10130 8289 c0 -5 5 -7 10 -4 6 3 10 8 10 11 0 2 -4 4 -10 4 -5 0
-10 -5 -10 -11z"/>
<path d="M10340 7919 c0 -5 -4 -8 -9 -5 -5 4 -8 -2 -6 -11 1 -10 8 -17 15 -15
7 1 17 -1 24 -5 7 -4 5 -1 -4 7 -9 9 -15 21 -12 28 2 6 1 12 -2 12 -3 0 -6 -5
-6 -11z"/>
<path d="M10350 7809 c0 -5 5 -7 10 -4 6 3 10 8 10 11 0 2 -4 4 -10 4 -5 0
-10 -5 -10 -11z"/>
<path d="M10426 7737 c3 -10 9 -15 12 -12 3 3 0 11 -7 18 -10 9 -11 8 -5 -6z"/>
<path d="M10396 7731 c-3 -5 1 -11 9 -15 8 -3 15 -1 15 4 0 13 -18 22 -24 11z"/>
<path d="M10470 7616 c-6 -8 -19 -13 -28 -10 -9 2 -7 -1 6 -7 12 -7 23 -16 23
-21 1 -4 3 -12 4 -18 1 -5 3 -13 4 -16 0 -4 7 -2 14 4 6 6 16 10 20 10 5 0 12
3 15 7 4 4 3 5 -3 4 -12 -4 -55 23 -55 34 0 4 4 6 8 3 5 -3 9 1 9 9 0 18 -2
19 -17 1z m25 -45 c3 -5 2 -12 -3 -15 -5 -3 -9 1 -9 9 0 17 3 19 12 6z"/>
<path d="M10553 7374 c0 -9 5 -10 19 -3 10 5 18 12 18 14 0 2 -8 3 -18 2 -10
0 -19 -7 -19 -13z"/>
<path d="M10630 7083 c1 -14 38 -53 51 -53 7 0 5 6 -7 15 -16 13 -16 14 -1 9
10 -4 17 -1 17 7 0 7 -3 9 -7 6 -3 -4 -17 0 -30 8 -13 9 -23 12 -23 8z"/>
<path d="M10680 6999 c-14 -26 -7 -34 17 -20 11 7 13 11 4 11 -7 0 -11 6 -7
15 8 22 -2 18 -14 -6z"/>
<path d="M10715 6780 c-3 -5 -1 -10 4 -10 6 0 11 5 11 10 0 6 -2 10 -4 10 -3
0 -8 -4 -11 -10z"/>
<path d="M10750 6600 c0 -5 5 -10 10 -10 6 0 10 5 10 10 0 6 -4 10 -10 10 -5
0 -10 -4 -10 -10z"/>
<path d="M10880 5936 c7 -7 14 -6 21 1 9 9 7 12 -9 10 -14 -1 -18 -5 -12 -11z"/>
<path d="M10915 5789 c-4 -6 -5 -12 -2 -15 2 -3 7 2 10 11 7 17 1 20 -8 4z"/>
<path d="M10910 5686 c0 -8 4 -17 9 -20 5 -4 7 3 4 14 -6 23 -13 26 -13 6z"/>
<path d="M10893 5435 c0 -8 4 -15 9 -15 4 0 8 7 8 15 0 8 -4 15 -8 15 -5 0 -9
-7 -9 -15z"/>
<path d="M10825 5130 c3 -5 11 -10 16 -10 6 0 7 5 4 10 -3 6 -11 10 -16 10 -6
0 -7 -4 -4 -10z"/>
<path d="M10873 4983 c4 -3 2 -12 -4 -19 -7 -8 -6 -14 2 -20 8 -5 9 -3 4 6 -6
10 -4 12 9 7 14 -6 15 -3 6 13 -6 11 -14 20 -17 20 -3 0 -3 -3 0 -7z"/>
<path d="M10846 4899 c-9 -15 -12 -30 -7 -33 5 -3 12 1 15 10 3 8 11 12 17 8
8 -5 9 -3 4 6 -6 10 -4 12 8 7 22 -8 21 -5 -2 14 -17 15 -19 15 -35 -12z"/>
<path d="M10823 4683 c-10 -3 -10 -10 -2 -24 5 -11 8 -23 5 -28 -3 -4 0 -8 7
-8 7 0 13 15 13 34 1 33 -1 36 -23 26z"/>
<path d="M10786 4481 c-3 -5 5 -11 19 -13 30 -6 32 -2 6 12 -11 6 -22 6 -25 1z"/>
<path d="M10794 4451 c3 -4 -3 -16 -14 -26 -10 -9 -19 -24 -19 -33 -2 -43 -4
-58 -13 -69 -6 -7 -5 -14 2 -18 8 -5 8 -10 0 -20 -8 -9 -7 -14 4 -18 9 -4 18
-1 22 5 4 7 3 8 -4 4 -7 -4 -12 -2 -12 3 0 6 5 11 10 11 6 0 10 5 10 11 0 5
-5 7 -10 4 -7 -4 -8 3 -4 21 4 16 7 34 7 41 0 16 9 16 26 1 10 -10 10 -8 0 10
-12 19 -12 24 1 32 13 8 13 10 1 10 -11 0 -10 3 3 13 17 13 18 14 2 20 -9 4
-15 3 -12 -2z m-11 -46 c-3 -9 -8 -14 -10 -11 -3 3 -2 9 2 15 9 16 15 13 8 -4z"/>
<path d="M10706 4245 c4 -8 10 -15 15 -15 4 0 6 7 3 15 -4 8 -10 15 -15 15 -4
0 -6 -7 -3 -15z"/>
<path d="M10674 3976 c-15 -12 -17 -17 -6 -27 6 -7 13 -10 13 -6 1 4 2 10 3
15 1 4 5 13 9 20 11 16 5 15 -19 -2z"/>
<path d="M10590 3806 c0 -9 5 -16 10 -16 6 0 10 4 10 9 0 6 -4 13 -10 16 -5 3
-10 -1 -10 -9z"/>
<path d="M10641 3804 c0 -11 3 -14 6 -6 3 7 2 16 -1 19 -3 4 -6 -2 -5 -13z"/>
<path d="M10634 3769 c-3 -6 -2 -15 3 -20 5 -5 9 -1 9 11 0 23 -2 24 -12 9z"/>
<path d="M10500 3610 c0 -5 5 -10 11 -10 5 0 7 5 4 10 -3 6 -8 10 -11 10 -2 0
-4 -4 -4 -10z"/>
<path d="M10525 3504 c-11 -8 -21 -19 -21 -24 -1 -6 -2 -14 -3 -20 0 -5 -6 -9
-12 -7 -20 4 -20 -20 0 -26 15 -3 18 -1 14 11 -4 10 -2 13 5 8 8 -5 10 -1 5
10 -5 13 -3 15 8 9 12 -8 12 -6 0 8 -13 17 -8 22 20 19 3 -1 6 6 6 14 0 8 -1
14 -1 14 -1 0 -10 -7 -21 -16z"/>
<path d="M10425 3450 c3 -5 8 -10 11 -10 2 0 4 5 4 10 0 6 -5 10 -11 10 -5 0
-7 -4 -4 -10z"/>
<path d="M10495 3399 c-4 -6 -5 -12 -2 -15 2 -3 7 2 10 11 7 17 1 20 -8 4z"/>
<path d="M10463 3378 c-11 -19 -12 -38 -2 -38 5 0 9 5 9 11 0 5 5 7 10 4 6 -3
10 -1 10 4 0 6 -5 11 -11 11 -5 0 -7 5 -4 10 3 6 4 10 1 10 -3 0 -8 -6 -13
-12z"/>
<path d="M10395 3250 c-3 -5 -1 -10 4 -10 6 0 11 5 11 10 0 6 -2 10 -4 10 -3
0 -8 -4 -11 -10z"/>
<path d="M10385 3221 c-6 -11 9 -23 19 -14 9 9 7 23 -3 23 -6 0 -12 -4 -16 -9z"/>
<path d="M10336 3102 c-3 -4 4 -9 15 -9 23 -2 25 3 4 10 -8 4 -16 3 -19 -1z"/>
<path d="M10290 3000 c0 -5 5 -10 10 -10 6 0 10 5 10 10 0 6 -4 10 -10 10 -5
0 -10 -4 -10 -10z"/>
<path d="M10186 2803 c-2 -3 -12 -6 -23 -7 -10 -2 -18 -12 -19 -22 -2 -39 -4
-42 -26 -36 -15 4 -19 2 -13 -7 4 -8 -2 -25 -15 -43 l-22 -30 23 -22 c12 -11
17 -14 10 -4 -8 11 -9 18 -1 23 5 3 10 18 10 33 1 26 1 27 16 7 11 -14 15 -15
14 -5 -4 27 0 41 9 35 5 -3 13 0 17 6 4 8 3 9 -4 5 -7 -4 -12 -2 -12 3 0 6 5
11 11 11 8 0 7 6 -2 17 -12 15 -12 16 4 10 12 -5 16 -3 11 5 -5 7 -2 9 9 5 8
-3 20 0 26 7 8 9 7 13 -4 13 -8 0 -17 -2 -19 -4z m-93 -138 c-3 -9 -8 -14 -10
-11 -3 3 -2 9 2 15 9 16 15 13 8 -4z"/>
<path d="M10015 2500 c-3 -5 -1 -10 4 -10 6 0 11 5 11 10 0 6 -2 10 -4 10 -3
0 -8 -4 -11 -10z"/>
<path d="M9785 2220 c-3 -6 1 -7 9 -4 18 7 21 14 7 14 -6 0 -13 -4 -16 -10z"/>
<path d="M9795 2200 c-3 -6 1 -7 9 -4 18 7 21 14 7 14 -6 0 -13 -4 -16 -10z"/>
<path d="M9620 2096 c0 -2 7 -9 15 -16 13 -11 14 -10 9 4 -5 14 -24 23 -24 12z"/>
<path d="M9493 1887 c-4 -7 -8 -17 -9 -23 -1 -6 -5 -21 -8 -32 -4 -11 -3 -23
1 -25 4 -3 9 7 10 21 0 15 11 34 22 43 17 14 18 18 6 23 -8 3 -18 0 -22 -7z"/>
<path d="M9520 1860 c-8 -5 -12 -12 -9 -15 4 -3 12 1 19 10 14 17 11 19 -10 5z"/>
<path d="M9081 1466 c-9 -10 -8 -15 3 -19 11 -4 13 -1 9 11 -6 15 -5 16 13 2
18 -14 18 -14 5 3 -16 21 -16 20 -30 3z"/>
<path d="M9003 1419 c-6 -8 -13 -21 -15 -29 -2 -8 -12 -22 -22 -31 -15 -12
-16 -18 -6 -24 8 -5 11 -4 7 2 -7 11 20 28 36 24 5 -1 6 3 2 8 -7 12 29 33 40
23 5 -4 5 -1 1 6 -4 7 -11 10 -16 7 -5 -3 -10 2 -12 11 -3 15 -5 15 -15 3z
m-2 -32 c-10 -9 -11 -8 -5 6 3 10 9 15 12 12 3 -3 0 -11 -7 -18z"/>
<path d="M8776 1182 c-3 -5 1 -9 9 -9 8 0 12 4 9 9 -3 4 -7 8 -9 8 -2 0 -6 -4
-9 -8z"/>
<path d="M8680 1165 c-10 -12 -10 -15 1 -15 8 0 6 -5 -6 -13 -18 -14 -14 -37
8 -37 7 0 6 4 -3 10 -16 11 -14 13 29 39 8 5 11 13 7 20 -10 15 -21 14 -36 -4z"/>
<path d="M8580 1130 c0 -5 5 -10 11 -10 5 0 7 5 4 10 -3 6 -8 10 -11 10 -2 0
-4 -4 -4 -10z"/>
<path d="M8629 1113 c-1 -5 -1 -12 0 -17 1 -5 -6 -6 -15 -2 -14 6 -15 4 -4 -9
12 -15 14 -15 22 0 5 8 13 13 19 10 5 -3 6 1 3 9 -6 16 -23 22 -25 9z"/>
<path d="M2415 1040 c-3 -5 -1 -10 4 -10 6 0 11 5 11 10 0 6 -2 10 -4 10 -3 0
-8 -4 -11 -10z"/>
<path d="M8220 891 c0 -5 5 -13 10 -16 6 -3 10 -2 10 4 0 5 -4 13 -10 16 -5 3
-10 2 -10 -4z"/>
<path d="M2962 716 c7 -8 15 -12 17 -11 5 6 -10 25 -20 25 -5 0 -4 -6 3 -14z"/>
<path d="M3050 680 c0 -5 5 -10 11 -10 5 0 7 5 4 10 -3 6 -8 10 -11 10 -2 0
-4 -4 -4 -10z"/>
<path d="M7845 669 c-11 -17 1 -21 15 -4 8 9 8 15 2 15 -6 0 -14 -5 -17 -11z"/>
<path d="M3100 650 c-9 -6 -10 -10 -3 -10 6 0 15 5 18 10 8 12 4 12 -15 0z"/>
<path d="M3130 640 c0 -5 5 -10 11 -10 5 0 7 5 4 10 -3 6 -8 10 -11 10 -2 0
-4 -4 -4 -10z"/>
<path d="M7775 580 c-3 -6 1 -7 9 -4 18 7 21 14 7 14 -6 0 -13 -4 -16 -10z"/>
<path d="M3230 576 c0 -2 8 -10 18 -17 15 -13 16 -12 3 4 -13 16 -21 21 -21
13z"/>
<path d="M3322 551 c7 -11 14 -18 16 -16 3 2 13 0 23 -6 15 -8 17 -6 13 6 -4
9 -9 13 -12 10 -3 -3 -16 2 -29 10 -23 15 -23 15 -11 -4z"/>
<path d="M7599 493 c-13 -16 -12 -17 4 -4 9 7 17 15 17 17 0 8 -8 3 -21 -13z"/>
<path d="M3550 468 c0 -2 9 -11 19 -20 18 -15 20 -15 26 0 3 9 3 13 -1 10 -4
-4 -15 -3 -25 3 -11 5 -19 8 -19 7z"/>
<path d="M7289 441 c-9 -9 -24 -22 -35 -29 -10 -7 -14 -10 -7 -7 6 3 14 1 18
-5 7 -12 32 -9 61 8 16 8 24 8 34 -1 9 -9 9 -6 -1 10 -7 12 -15 20 -18 18 -2
-3 -11 1 -20 8 -14 12 -18 11 -32 -2z m32 -24 c-6 -6 -21 -12 -33 -14 -18 -2
-19 -1 -8 6 8 5 18 7 24 4 5 -4 7 1 3 10 -4 11 -2 14 9 10 11 -4 12 -9 5 -16z"/>
<path d="M3530 439 c0 -5 5 -7 10 -4 6 3 10 8 10 11 0 2 -4 4 -10 4 -5 0 -10
-5 -10 -11z"/>
<path d="M3747 385 c2 -7 12 -12 21 -12 35 0 43 -3 36 -15 -5 -7 -3 -8 6 -3
11 7 8 12 -9 24 -28 18 -61 22 -54 6z"/>
<path d="M3830 369 c0 -5 5 -7 10 -4 6 3 10 1 10 -4 0 -6 5 -11 11 -11 8 0 8
5 -1 15 -14 17 -30 20 -30 4z"/>
<path d="M7067 345 c3 -9 2 -15 -3 -14 -32 6 -47 -14 -20 -24 11 -4 13 -1 9
11 -6 15 -5 16 12 2 10 -8 16 -10 12 -3 -4 6 -3 14 3 18 11 7 4 25 -10 25 -5
0 -7 -7 -3 -15z"/>
<path d="M7190 350 c-9 -6 -10 -10 -3 -10 6 0 15 5 18 10 8 12 4 12 -15 0z"/>
<path d="M6915 329 c-4 -6 -4 -13 0 -17 3 -3 9 -1 13 5 6 9 11 7 19 -6 9 -14
8 -18 -3 -18 -7 0 -10 5 -7 10 3 6 1 7 -5 3 -6 -4 -8 -14 -5 -23 5 -11 8 -13
11 -5 3 10 7 10 19 1 11 -10 14 -10 11 1 -2 8 2 15 7 15 21 3 45 18 45 27 0 6
-6 6 -14 -1 -10 -9 -16 -9 -21 -1 -4 6 -13 9 -21 6 -7 -3 -16 -1 -19 4 -8 13
-22 13 -30 -1z m69 -17 c3 -5 -1 -9 -9 -9 -8 0 -12 4 -9 9 3 4 7 8 9 8 2 0 6
-4 9 -8z"/>
<path d="M4076 302 c-4 -7 -12 -10 -17 -7 -15 10 -10 -2 8 -16 11 -10 14 -10
9 -1 -4 6 -3 12 3 12 5 0 12 -8 14 -17 4 -17 5 -17 6 0 1 11 6 15 13 11 7 -4
8 -3 4 5 -4 6 -11 9 -16 6 -4 -3 -10 0 -12 7 -3 9 -6 9 -12 0z"/>
<path d="M4010 296 c0 -3 9 -10 20 -16 11 -6 20 -8 20 -6 0 3 -9 10 -20 16
-11 6 -20 8 -20 6z"/>
<path d="M4135 290 c-10 -15 0 -23 31 -24 14 -1 35 -13 46 -26 18 -23 19 -24
8 -2 -6 12 -8 28 -4 35 4 6 4 9 -1 5 -4 -4 -14 -3 -22 3 -10 9 -13 8 -13 -1 0
-9 -6 -8 -19 4 -13 12 -21 14 -26 6z"/>
<path d="M4113 255 c0 -8 4 -12 9 -9 5 3 6 10 3 15 -9 13 -12 11 -12 -6z"/>
<path d="M4170 246 c0 -2 7 -7 16 -10 8 -3 12 -2 9 4 -6 10 -25 14 -25 6z"/>
<path d="M4337 233 c-13 -12 -7 -22 12 -20 15 1 17 4 9 14 -12 15 -13 15 -21
6z"/>
<path d="M4393 225 c-15 -11 -16 -16 -5 -27 11 -11 12 -10 7 2 -4 11 1 16 16
17 18 2 19 0 7 -15 -12 -15 -11 -16 4 -4 11 9 18 10 23 2 3 -5 1 -10 -6 -10
-7 0 -10 -3 -6 -6 13 -13 27 7 17 25 -13 26 -35 32 -57 16z"/>
<path d="M4599 198 c-4 -15 -6 -38 -3 -38 2 0 8 9 14 20 7 14 7 20 0 20 -5 0
-10 -1 -11 -2z"/>
<path d="M4750 180 c0 -13 18 -22 24 -11 3 5 -1 11 -9 15 -8 3 -15 1 -15 -4z"/>
<path d="M6362 166 c7 -8 15 -12 17 -11 5 6 -10 25 -20 25 -5 0 -4 -6 3 -14z"/>
<path d="M5828 148 c9 -9 15 -9 24 0 9 9 7 12 -12 12 -19 0 -21 -3 -12 -12z"/>
<path d="M6390 149 c0 -5 5 -7 10 -4 6 3 10 8 10 11 0 2 -4 4 -10 4 -5 0 -10
-5 -10 -11z"/>
<path d="M4750 140 c0 -5 5 -10 10 -10 6 0 10 5 10 10 0 6 -4 10 -10 10 -5 0
-10 -4 -10 -10z"/>
<path d="M5956 129 c11 -18 43 -29 50 -17 4 6 3 8 -4 4 -5 -3 -12 -1 -14 6 -2
6 -12 12 -21 14 -9 1 -15 -2 -11 -7z"/>
<path d="M5096 114 c-4 -9 -4 -19 -1 -22 2 -3 7 3 11 12 4 9 4 19 1 22 -2 3
-7 -3 -11 -12z"/>
<path d="M5125 121 c-6 -11 33 -36 43 -27 3 3 0 6 -7 6 -7 0 -9 4 -6 10 4 6
-1 7 -11 3 -12 -4 -15 -3 -10 5 4 7 5 12 2 12 -3 0 -7 -4 -11 -9z"/>
<path d="M5686 114 c-3 -8 -10 -13 -15 -10 -5 3 -11 0 -14 -8 -4 -10 0 -12 14
-9 10 3 19 9 19 13 0 13 31 5 41 -11 7 -11 9 -11 9 -1 0 8 5 10 13 6 8 -5 8
-2 -2 9 -20 25 -6 21 21 -6 13 -12 20 -18 16 -13 -5 6 -8 14 -8 18 0 11 23 6
32 -7 11 -15 10 7 -1 24 -8 12 -12 12 -25 2 -9 -8 -16 -9 -16 -4 0 5 -9 9 -20
10 -11 1 -20 -3 -20 -10 0 -8 -3 -8 -12 1 -16 16 -25 15 -32 -4z"/>
<path d="M5290 86 c0 -2 7 -7 16 -10 8 -3 12 -2 9 4 -6 10 -25 14 -25 6z"/>
<path d="M5535 80 c3 -5 8 -10 11 -10 2 0 4 5 4 10 0 6 -5 10 -11 10 -5 0 -7
-4 -4 -10z"/>
</g>
</svg>
